<svg version="1.2" xmlns="http://www.w3.org/2000/svg" viewBox="0 0 297 353" width="297" height="353"><style>.a{fill:#fc6a5a}.b{fill:#d35450}.c{fill:#f19c7c}.d{fill:#c47d66}.e{fill:#352c38}.f{fill:#5d8584}.g{fill:#6f9b99}.h{fill:#a06653}.i{fill:#fff}</style><path class="a" d="m232.7 51.8q5.4 38 21.4 63.3c23 36.5-6.7 41.3-0.7 66.7 6 25.3 52 46.6-2.7 104.6q-35.8 38-78.6-36l-12-96.6z"/><path class="b" d="m242.1 210.4c22.6 25.4-8.7 58.7-26 64.7-5.2 1.8-14.4-18.3-18.4-14q-15-12.1-25.6-28.2l-12-85.4 38.1-47.3q8.2 6.9 16.9 13.4c32.3 32.2-0.1 66.6 27 96.8z"/><path class="c" d="m294.9 353h-144.2-5.4-144.2c-10.8-103.3 89.5-107.9 106.4-117.2q17-9.3 12.4-54l25.4 1.7v-1.7l2.7 0.8 2.7-0.8v1.7l25.4-1.7q-4.6 44.7 12.4 54c16.9 9.3 117.2 13.9 106.4 117.2z"/><path class="d" d="m119.9 181.8l25.4 1.7v-1.7l2.7 0.8 2.7-0.8v1.7l25.4-1.7q-1.8 17.7 1.1 33.1-30.4 4.8-60.9 9.4 6.3-16.5 3.6-42.5z"/><path class="e" d="m181.8 312.4c3.8-5.3 7-11.1 9.7-17.6 7.1-16.8 9.3-35.8 10.9-54.4 3.5 0.9 7.5 2 11.8 3.2-5.5 22.2-6.5 46.2-2 68.8z"/><path class="f" d="m296.2 353h-144.8-5.5-144.8c-6.1-58.6 23.3-85.6 53.2-99.7 16.8 23 52.7 38.9 94.4 38.9 41.6 0 77.6-15.9 94.4-38.9 29.8 14.1 59.2 41.1 53.1 99.7z"/><path class="g" d="m11.5 291c10.3-18.4 26.5-30 42.8-37.7 16.8 23 52.7 38.9 94.4 38.9 41.6 0 77.6-15.9 94.4-38.9 13.8 6.6 27.5 15.8 37.6 29.7-28.5 25.6-80.4 42.8-139.6 42.8-52.9 0-99.8-13.7-129.6-34.8z"/><path class="d" d="m89.5 145.4c-8.8 2.6-18.3-6.2-20.4-22.5-2.1-16.1 10.1-18 11.3-18.1 1.1-0.4 12.9-4 17.9 11.5 5.1 15.6 0.3 27.6-8.8 29.1z"/><path class="d" d="m198.1 116.3c5-15.5 16.9-11.9 18-11.5 1.1 0.1 13.4 2 11.3 18.1-2.2 16.3-11.6 25.1-20.4 22.5-9.1-1.5-13.9-13.5-8.9-29.1z"/><path class="c" d="m86.2 92.9c6.2-68 57.9-64.2 62.7-63.7 4.9-0.5 56.6-4.3 62.8 63.7 6.2 68.3-24.2 113-62.8 110.5-38.5 2.5-68.9-42.2-62.7-110.5z"/><path class="a" d="m218.7 25.8c26 38.3 9.7 40 16.7 66q7 26-11.3 41.3 6.6-20-12-28.7-51 2-55.4-36.3l12.7 31.7q-51.3-10-57.7-61.7c9-50 84.1-46.1 107-12.3z"/><path class="a" d="m107.4 79.1c-14.7 12-22.7 28.7-18 62.7q4.7 34 32 55.3 2.7 8.7-2 49.3c-4.7 40.7-69.3 68-95.3 16.7-26-51.3 55.3-70.7 34-91.3-21.4-20.7-24-40-6.7-62 17.3-22 12.7-57.4 31.3-80q18.7-22.7 43.4-2.7c9.3 29.3-4 40-18.7 52z"/><path class="b" d="m119.7 243.8q-0.2 1.3-0.3 2.6c-4.7 40.7-69.3 68-95.3 16.7-10.7-21.1-3.3-36.7 7.7-49.3-2 6.6-1.2 14.8 4.3 25.3 20 38.8 63.1 20.9 83.6 4.7z"/><path class="h" d="m157.9 126.8c0.8 1.6 1.5 3.2 2.1 4.8q0.8 2.5 1.5 5c0.2 0.8 0.4 1.6 0.6 2.5q0.3 1.2 0.5 2.5 0.5 2.5 0.8 5.1l0.1 0.8-0.5 0.4q-2 1.9-4.2 3.7c-1.5 1.2-3 2.4-4.5 3.5 1-1.7 2.1-3.2 3.3-4.7q1.7-2.2 3.5-4.4l-0.3 1.2q-0.8-2.4-1.4-4.9-0.3-1.3-0.5-2.6c-0.2-0.8-0.3-1.6-0.5-2.5q-0.4-2.5-0.5-5.1c-0.1-1.7-0.2-3.5 0-5.3z"/><path class="i" d="m175.3 167.3c-12.3 11.9-33.1 11.3-48.9 0.6"/><path class="e" d="m197.7 103.8q-0.6-0.3-1.5-0.8-0.7-0.4-1.6-0.9-1-0.5-2.1-1.1c-0.8-0.4-1.6-0.8-2.5-1.2q-0.7-0.3-1.3-0.6-0.7-0.2-1.4-0.5c-1-0.4-2-0.5-2.9-0.9-1-0.1-2-0.5-3-0.4l-1.4-0.1q-0.8 0-1.5 0.1c-1-0.1-1.9 0.3-2.8 0.4-1 0.2-1.8 0.6-2.7 0.8l-0.7 0.3-0.6 0.3q-0.6 0.2-1.2 0.5c-0.7 0.4-1.5 0.6-2.1 1-0.6 0.4-1.1 0.7-1.6 1q-0.9 0.5-1.5 0.7 0.2-0.5 0.7-1.5c0.3-0.5 0.6-1 1-1.7 0.4-0.7 1-1.3 1.7-2 0.7-0.6 1.3-1.5 2.3-2.1 0.9-0.6 1.9-1.4 3.1-1.8q0.8-0.4 1.8-0.7c0.6-0.2 1.3-0.4 1.9-0.4q1-0.2 2.1-0.3 1 0 2 0.1c1.4 0 2.7 0.5 4 0.8q0.9 0.4 1.8 0.7 0.9 0.4 1.6 0.9 0.8 0.5 1.5 1 0.7 0.5 1.4 1c0.8 0.7 1.5 1.5 2.2 2.1 1.2 1.5 2.1 2.8 2.6 3.7q0.5 1 0.7 1.6z"/><path class="e" d="m133.3 103.8q-0.5-0.3-1.5-0.8-0.7-0.4-1.6-0.9-1-0.5-2.1-1.1c-0.8-0.4-1.6-0.8-2.5-1.2q-0.6-0.3-1.3-0.6-0.7-0.2-1.4-0.5c-0.9-0.4-1.9-0.5-2.9-0.9-1-0.1-2-0.5-2.9-0.4l-1.5-0.1q-0.7 0-1.5 0.1c-1-0.1-1.9 0.3-2.8 0.4-1 0.2-1.8 0.6-2.7 0.8l-0.7 0.3-0.6 0.3q-0.6 0.2-1.1 0.5c-0.8 0.4-1.6 0.6-2.1 1-0.6 0.4-1.2 0.7-1.7 1q-0.9 0.5-1.5 0.7 0.2-0.5 0.8-1.5c0.2-0.5 0.5-1 1-1.7 0.3-0.7 0.9-1.3 1.6-2 0.7-0.6 1.3-1.5 2.3-2.1 1-0.6 1.9-1.4 3.1-1.8q0.9-0.4 1.8-0.7c0.6-0.2 1.3-0.4 1.9-0.4q1.1-0.2 2.1-0.3 1 0 2 0.1c1.4 0 2.7 0.5 4 0.8q0.9 0.4 1.8 0.7 0.9 0.4 1.6 0.9 0.8 0.5 1.6 1 0.6 0.5 1.3 1c0.9 0.7 1.5 1.5 2.2 2.1 1.2 1.5 2.1 2.8 2.6 3.7q0.5 1 0.7 1.6z"/><path class="e" d="m131.3 128.4q-0.2-0.5-0.5-1.4c-0.3-1-0.8-2.3-1.6-3.7-0.7-1.4-1.8-2.9-3.3-4.1-0.7-0.5-1.6-1-2.5-1.3-0.5-0.1-0.9-0.3-1.4-0.3-0.5-0.1-1-0.2-1.5-0.1-0.5 0-1.1-0.1-1.5 0-0.5 0.1-1.1 0.1-1.6 0.3-0.8 0.3-1.7 0.6-2.4 1.1-0.7 0.6-1.3 1.3-1.8 2q-0.7 1.1-1.2 2.2c-0.6 1.5-0.9 2.8-1 3.8q-0.2 1-0.3 1.5-0.1-0.5-0.2-1.5c-0.1-1-0.2-2.5 0.2-4.2 0.2-0.9 0.5-1.8 0.9-2.7 0.5-1 1.1-1.9 2.1-2.7q1.3-1.2 3.3-1.8c0.6-0.2 1.1-0.2 1.6-0.3 0.8-0.1 1.3-0.1 1.9-0.1 0.6 0 1.3 0.1 1.9 0.2 0.6 0.1 1.2 0.2 1.8 0.5 0.6 0.1 1.1 0.4 1.6 0.8 0.5 0.2 1 0.6 1.4 1 1.8 1.6 2.8 3.5 3.3 5.2 0.6 1.6 0.7 3.1 0.8 4.1q0 1 0 1.5z"/><path class="e" d="m189.1 127.5q-0.1-0.6-0.4-1.5c-0.3-0.9-0.8-2.2-1.6-3.6-0.8-1.4-1.8-3-3.4-4.1-0.7-0.6-1.5-1-2.5-1.3-0.4-0.2-0.9-0.3-1.4-0.3-0.5-0.1-1-0.2-1.5-0.2-0.5 0.1-1.1 0-1.4 0.1-0.5 0.1-1.2 0.1-1.6 0.3-0.8 0.2-1.7 0.5-2.4 1.1-0.8 0.5-1.4 1.2-1.9 1.9q-0.7 1.1-1.1 2.3c-0.6 1.4-0.9 2.8-1.1 3.8q-0.2 0.9-0.2 1.5-0.2-0.6-0.3-1.6c-0.1-0.9-0.1-2.4 0.2-4.1 0.2-0.9 0.5-1.8 1-2.8 0.5-0.9 1.1-1.9 2-2.6q1.4-1.2 3.3-1.8c0.6-0.2 1.1-0.2 1.7-0.3 0.7-0.2 1.2-0.1 1.9-0.1 0.6-0.1 1.2 0.1 1.8 0.2 0.6 0 1.2 0.2 1.8 0.4 0.6 0.2 1.1 0.5 1.7 0.8 0.5 0.3 0.9 0.7 1.4 1.1 1.7 1.5 2.7 3.5 3.3 5.1 0.5 1.7 0.7 3.1 0.7 4.1q0.1 1 0 1.6z"/></svg>