<svg version="1.2" xmlns="http://www.w3.org/2000/svg" viewBox="0 0 296 357" width="296" height="357"><style>.a{fill:#ffac9d}.b{fill:#cc887f}.c{fill:#7aa8ce}.d{fill:#6f96bd}.e{fill:#ffa65b}.f{fill:#d68950}.g{fill:#fff}.h{fill:#352c38}.i{opacity:.3;fill:#352c38}.j{fill:#965450}.k{fill:#76413b}</style><path class="a" d="m294.9 357h-144.2-5.4-144.2c-10.8-103.3 89.5-107.9 106.4-117.2q17-9.3 12.4-54l25.4 1.7v-1.7l2.7 0.8 2.7-0.8v1.7l25.4-1.7q-4.6 44.7 12.4 54c16.9 9.3 117.2 13.9 106.4 117.2z"/><path class="b" d="m119.9 185.8l25.4 1.7v-1.7l2.7 0.8 2.7-0.8v1.7l25.4-1.7q-1.8 17.7 1.1 33.1-30.4 4.8-60.9 9.4 6.3-16.5 3.6-42.5z"/><path class="c" d="m294.9 357h-144.2-5.4-144.2c-8.8-84 55.9-102.8 89.5-111.8 15 8.6 34.9 13.9 56.8 13.9 22 0 42.1-5.4 57.1-14.2 33.4 9 99.2 27.3 90.4 112.1z"/><path class="d" d="m294.9 357h-290.4q18.1-4.9 36.3-9.7c42.3-11.4 84.7-22.8 126.8-34.9q31.6-9 63-18.7c14.7-4.6 29.6-6.8 43.1-13.3 15.1 16.4 24.9 40.5 21.2 76.6z"/><path class="e" d="m120.8 357h-119.7c-7.8-75 42.8-98 77.7-108.5z"/><path class="e" d="m294.9 357h-97.6l19.1-108.7c34.8 10.4 86.4 33.1 78.5 108.7z"/><path class="f" d="m50 259.8c9.8-5 19.8-8.6 28.8-11.3l42 108.5h-10.5z"/><path class="f" d="m256.4 265.8l-50.4 91.2h-8.7l19.1-108.7c12.3 3.6 26.8 8.9 40 17.5z"/><path class="b" d="m89.5 149.4c-8.8 2.6-18.3-6.2-20.4-22.5-2.1-16.1 10.1-18 11.3-18.1 1.1-0.4 12.9-4 17.9 11.5 5.1 15.6 0.3 27.6-8.8 29.1z"/><path class="b" d="m198.1 120.3c5-15.5 16.9-11.9 18-11.5 1.1 0.1 13.4 2 11.3 18.1-2.2 16.3-11.6 25.1-20.4 22.5-9.1-1.5-13.9-13.5-8.9-29.1z"/><path class="a" d="m86.2 96.9c6.2-68 57.9-64.2 62.7-63.7 4.9-0.5 56.6-4.3 62.8 63.7 6.2 68.3-24.2 113-62.8 110.5-38.5 2.5-68.9-42.2-62.7-110.5z"/><path class="b" d="m157.9 128.8c0.8 1.6 1.5 3.2 2.1 4.8q0.8 2.5 1.5 5c0.2 0.8 0.4 1.6 0.6 2.5q0.3 1.2 0.5 2.5 0.5 2.5 0.8 5.1l0.1 0.8-0.5 0.4q-2 1.9-4.2 3.7c-1.5 1.2-3 2.4-4.5 3.4 1-1.6 2.1-3.1 3.3-4.6q1.7-2.2 3.5-4.4l-0.3 1.2q-0.8-2.4-1.4-4.9-0.3-1.3-0.5-2.6c-0.2-0.8-0.3-1.6-0.5-2.5q-0.4-2.5-0.5-5.1c-0.1-1.7-0.2-3.5 0-5.3z"/><path class="g" d="m175.3 169.3c-12.3 11.9-33.1 11.3-48.9 0.6"/><path class="h" d="m197.7 105.8q-0.6-0.3-1.5-0.8-0.7-0.4-1.6-0.9-1-0.5-2.1-1.1c-0.8-0.4-1.6-0.8-2.5-1.2q-0.7-0.3-1.3-0.6-0.7-0.2-1.4-0.5c-1-0.4-2-0.5-2.9-0.9-1-0.1-2-0.5-3-0.4l-1.4-0.1q-0.8 0-1.5 0.1c-1-0.1-1.9 0.3-2.8 0.4-1 0.2-1.8 0.6-2.7 0.8l-0.7 0.3-0.6 0.3q-0.6 0.2-1.2 0.5c-0.7 0.4-1.5 0.6-2.1 1-0.6 0.4-1.1 0.7-1.6 1q-0.9 0.5-1.5 0.7 0.2-0.5 0.7-1.5c0.3-0.5 0.6-1 1-1.7 0.4-0.7 1-1.3 1.7-2 0.7-0.6 1.3-1.5 2.3-2.1 0.9-0.6 1.9-1.4 3.1-1.8q0.8-0.4 1.8-0.7c0.6-0.2 1.3-0.4 1.9-0.4q1-0.2 2.1-0.3 1 0 2 0.1c1.4 0 2.7 0.5 4 0.8q0.9 0.3 1.8 0.7 0.9 0.4 1.6 0.9 0.8 0.5 1.5 0.9 0.7 0.6 1.4 1.1c0.8 0.7 1.5 1.5 2.2 2.1 1.2 1.4 2.1 2.8 2.6 3.7q0.5 1 0.7 1.6z"/><path class="h" d="m133.3 105.8q-0.5-0.3-1.5-0.8-0.7-0.4-1.6-0.9-1-0.5-2.1-1.1c-0.8-0.4-1.6-0.8-2.5-1.2q-0.6-0.3-1.3-0.6-0.7-0.2-1.4-0.5c-0.9-0.4-1.9-0.5-2.9-0.9-1-0.1-2-0.5-2.9-0.4l-1.5-0.1q-0.7 0-1.5 0.1c-1-0.1-1.9 0.3-2.8 0.4-1 0.2-1.8 0.6-2.7 0.8l-0.7 0.3-0.6 0.3q-0.6 0.2-1.1 0.5c-0.8 0.4-1.6 0.6-2.1 1-0.6 0.4-1.2 0.7-1.7 1q-0.9 0.5-1.5 0.7 0.2-0.5 0.8-1.5c0.2-0.5 0.5-1 1-1.7 0.3-0.7 0.9-1.3 1.6-2 0.7-0.6 1.3-1.5 2.3-2.1 1-0.6 1.9-1.4 3.1-1.8q0.9-0.4 1.8-0.7c0.6-0.2 1.3-0.4 1.9-0.4q1.1-0.2 2.1-0.3 1 0 2 0.1c1.4 0 2.7 0.5 4 0.8q0.9 0.3 1.8 0.7 0.9 0.4 1.6 0.9 0.8 0.5 1.6 0.9 0.6 0.6 1.3 1.1c0.9 0.7 1.5 1.5 2.2 2.1 1.2 1.4 2.1 2.8 2.6 3.7q0.5 1 0.7 1.6z"/><path class="h" d="m131.3 130.4q-0.2-0.5-0.5-1.5c-0.3-0.9-0.8-2.2-1.6-3.6-0.7-1.4-1.8-2.9-3.3-4.1-0.7-0.5-1.6-1-2.5-1.3-0.5-0.1-0.9-0.3-1.4-0.3-0.5-0.1-1-0.2-1.5-0.1-0.5 0-1.1-0.1-1.5 0-0.5 0.1-1.1 0.1-1.6 0.3-0.8 0.3-1.7 0.6-2.4 1.1-0.7 0.6-1.3 1.3-1.8 2q-0.7 1.1-1.2 2.2c-0.6 1.5-0.9 2.8-1 3.8q-0.2 1-0.3 1.5-0.1-0.5-0.2-1.5c-0.1-1-0.2-2.5 0.2-4.2 0.2-0.9 0.5-1.8 0.9-2.7 0.5-1 1.1-1.9 2.1-2.7q1.3-1.2 3.3-1.8c0.6-0.2 1.1-0.2 1.6-0.3 0.8-0.1 1.3-0.1 1.9-0.1 0.6 0 1.3 0.1 1.9 0.2 0.6 0.1 1.2 0.2 1.8 0.5 0.6 0.1 1.1 0.4 1.6 0.8 0.5 0.2 1 0.6 1.4 1 1.8 1.6 2.8 3.5 3.3 5.2 0.6 1.6 0.7 3.1 0.8 4.1q0 1 0 1.5z"/><path class="h" d="m189.1 129.5q-0.1-0.6-0.4-1.5c-0.3-0.9-0.8-2.2-1.6-3.6-0.8-1.4-1.8-3-3.4-4.1-0.7-0.6-1.5-1-2.5-1.3-0.4-0.2-0.9-0.3-1.4-0.3-0.5-0.1-1-0.2-1.5-0.2-0.5 0.1-1.1 0-1.4 0.1-0.5 0.1-1.2 0.1-1.6 0.3-0.8 0.2-1.7 0.5-2.4 1.1-0.8 0.5-1.4 1.2-1.9 1.9q-0.7 1.1-1.1 2.3c-0.6 1.4-0.9 2.8-1.1 3.8q-0.2 0.9-0.2 1.5-0.2-0.6-0.3-1.6c-0.1-0.9-0.1-2.4 0.2-4.1 0.2-0.9 0.5-1.8 1-2.8 0.5-0.9 1.1-1.9 2-2.6q1.4-1.2 3.3-1.8c0.6-0.2 1.1-0.2 1.7-0.3 0.7-0.2 1.2-0.1 1.9-0.1 0.6-0.1 1.2 0.1 1.8 0.2 0.6 0 1.2 0.2 1.8 0.4 0.6 0.2 1.1 0.5 1.7 0.8 0.5 0.3 0.9 0.7 1.4 1.1 1.7 1.5 2.7 3.5 3.3 5.1 0.5 1.7 0.7 3.1 0.7 4.1q0.1 1 0 1.6z"/><path class="i" d="m49.2 114.3c-1.5 2.3-2.6 4.3-3.1 5.7q-0.6 1.4-0.9 2.1 0.2-0.8 0.7-2.2c0.2-0.7 0.4-1.6 0.9-2.6 0.5-1 1-2.2 1.8-3.4 1.3-2.5 3.6-5.2 6.4-8 2.8-2.7 6.2-5.6 8.2-9.7 2.1-4.1 2.4-9.3 2-14.5q-0.2-2.1-0.5-4.2l-0.1-1.1c0 0 0-0.6 0-0.6v-0.6q0-1.1 0-2.2 0.1-4.5 0.8-9.1c0.5-3.1 1.2-6.2 2.3-9.2 0.3-0.8 0.6-1.6 1-2.3 0.4-0.8 0.7-1.6 1.3-2.3l0.7-1.2 0.8-0.9 0.4-0.5 0.1-0.1 0.2-0.2 0.2-0.2 0.9-0.8c2.3-2.1 4.8-3.7 7.5-5.1q0 2.3 0 4.5c-1.7 1-3.4 2.1-4.9 3.4l-0.8 0.8-0.2 0.1v0.1l-0.1 0.1-0.4 0.4-0.8 0.9-0.5 0.8c-0.4 0.5-0.7 1.2-1 1.8-0.4 0.6-0.6 1.3-0.9 2-1.1 2.7-1.8 5.6-2.3 8.5-0.5 2.9-0.8 5.8-1 8.6q-0.1 1.1-0.1 2.1v0.5c0 0.3 0 0.1 0 0.4l0.1 1.1q0.1 2.1 0.3 4.2 0 2.1 0 4.2c-0.1 1.4-0.3 2.8-0.4 4.1-0.2 1.4-0.7 2.7-1 4-0.5 1.2-0.9 2.4-1.6 3.5-2.5 4.6-6.2 7.3-9.1 9.8-3 2.6-5.4 5-6.9 7.3z"/><path class="j" d="m184.1 38.4q22.6 0.7 30 28.7c7.3 28-0.7 33.3-0.7 56q0 14-3.3 18.7l-4.7-46q-31.3-16.7-21.3-57.4z"/><path fill-rule="evenodd" class="k" d="m186.7 46.4q-5.3 23.4-32 29l-0.6 0.3-5.2 1.9c-1.8 0.6-3.6 0.9-5.5 1.3-0.9 0.2-1.8 0.5-2.7 0.6l-2.6 0.3-5.4 0.6c-0.8 0.1-1.6 0.2-2.4 0.3l-2.3 0.5-2.3 0.7c-0.7 0.3-1.3 0.7-2 1-0.7 0.4-1.3 0.8-1.9 1.2-0.6 0.5-1.1 1-1.7 1.5l-1.5 1.7-1.2 1.7-1.2 3.3c-0.5 1.2-0.7 2.4-1 3.6-0.8 2.5-1 4.9-1.4 7.4-0.2 1.1-0.2 2.5-0.3 3.8l-0.2 4-0.2 4-0.2 2.1-0.4 2.1-0.4 2.1c-0.1 0.8-0.4 1.4-0.6 2.1l-0.7 2.1-0.9 2c-0.6 1.4-1.5 2.6-2.3 3.8-0.9 1.2-1.8 2.4-2.8 3.3-2 2.1-4 3.8-5.4 5.5-1.3 1.7-1.9 3.5-1.9 5.7 0.1 1.1 0.1 2.2 0.5 3.3l0.3 1.7c0.2 0.6 0.5 1.3 0.7 1.9l1.3 3.7c0.4 1.3 1 2.5 1.3 3.9 0.4 1.3 0.7 2.7 1 4q0.3 2.1 0.6 4.2c0 1.4 0.1 2.8 0 4.2-0.3 1.4-0.2 2.8-0.7 4.2-0.3 1.4-0.6 2.7-1.2 4-0.5 1.4-1.2 2.6-1.9 3.8-1.5 2.3-3.3 4.5-5.4 6.2-2.1 1.8-4.5 3.2-6.9 4.3-2.5 1.1-5.1 1.8-7.7 2.4 2.6-0.9 5-2 7.2-3.3 2.2-1.4 4.3-2.9 6.1-4.8 1.8-1.8 3.2-3.9 4.4-6.1 0.5-1.2 1-2.3 1.3-3.5 0.5-1.2 0.7-2.4 0.9-3.6 0.3-1.2 0.1-2.5 0.2-3.7 0-1.2-0.1-2.5-0.2-3.7l-0.7-3.7-1.1-3.6c-0.4-1.2-1-2.3-1.4-3.5l-1.6-3.7q0-0.1 0-0.1c5.2 22.6-9.9 33.5-23.8 35.4-14.6 2-26.6-14.7-24-26q6.7 19.3 20 4.6c7-7.7-22.6-22-16.6-44 6-22 24.6-16 19.3-46.6-0.1-0.5-1-20.1 6.3-27.9q0.7-0.8 1.5-1.5 0.3-0.2 0.5-0.4 0.6-0.5 1.2-1 1.3-0.9 2.6-1.8c-2 1.1-3.9 2.4-5.6 3.8l-0.8 0.8-0.2 0.1v0.1l-0.1 0.1-0.4 0.4-0.8 0.9-0.5 0.8c-0.4 0.5-0.7 1.2-1 1.8-0.4 0.6-0.6 1.3-0.9 2-1.1 2.7-1.8 5.6-2.3 8.5-0.5 2.9-0.8 5.8-1 8.6q-0.1 1.1-0.1 2.1v0.5c0 0.3 0 0.1 0 0.4l0.1 1.1q0.1 2.1 0.3 4.2 0 2.1 0 4.2c-0.1 1.4-0.3 2.8-0.4 4.1-0.2 1.4-0.7 2.7-1 4-0.5 1.2-0.9 2.4-1.6 3.5-2.5 4.6-6.2 7.3-9.1 9.8-3 2.6-5.4 5-6.9 7.3-1.5 2.3-2.6 4.3-3.1 5.7q-0.6 1.4-0.9 2.1 0.2-0.8 0.7-2.2c0.2-0.7 0.4-1.6 0.9-2.6 0.5-1 1-2.2 1.8-3.4 1.3-2.5 3.6-5.2 6.4-8 2.8-2.7 6.2-5.6 8.2-9.7 2.1-4.1 2.4-9.3 2-14.5q-0.2-2.1-0.5-4.2l-0.1-1.1c0 0 0-0.6 0-0.6v-0.6q0-1.1 0-2.2 0.1-4.5 0.8-9.1c0.5-3.1 1.2-6.2 2.3-9.2 0.3-0.8 0.6-1.6 1-2.3 0.4-0.8 0.7-1.6 1.3-2.3l0.7-1.2 0.8-0.9 0.4-0.5 0.1-0.1 0.2-0.2 0.2-0.2 0.9-0.8c2.6-2.4 5.4-4.1 8.5-5.6 1.6-0.8 3.1-1.3 4.6-1.9 1.5-0.6 2.9-1.1 4.3-1.8 5.5-2.6 10.1-6.7 13.8-11.7 3.7-4.8 6.8-10.3 10.9-15.1 2.1-2.3 4.5-4.5 7.2-6.1 2.6-1.6 5.6-2.6 8.4-3.1 4.3-0.8 8.4-0.5 12.2 0 30.3 2.2 47.4 29.4 43.5 45.5zm-81.3 77.1l0.3-0.8c-6.8 9.7-16.9 8.8-13.3 24.3q0-0.5-0.1-1c-0.1-0.7 0.1-1.6 0.1-2.3l0.2-1.3 0.3-1.2c0.3-0.7 0.5-1.6 1-2.2 0.4-0.7 0.7-1.5 1.2-2.1 1.9-2.5 3.9-4.2 5.5-6 1.7-1.9 3.1-3.7 4.1-5.8z"/><path fill-rule="evenodd" class="i" d="m113.3 111.2l-0.2 3.9-0.2 2.1-0.4 2.1-0.4 2.1c-0.1 0.8-0.4 1.4-0.6 2.1l-0.7 2.1-0.9 2c-0.6 1.4-1.5 2.6-2.3 3.8-0.9 1.2-1.8 2.4-2.8 3.3-2 2.1-4 3.8-5.4 5.5-1.3 1.7-1.9 3.5-1.9 5.7 0.1 1.1 0.1 2.2 0.5 3.3l0.3 1.7c0.2 0.6 0.5 1.3 0.7 1.9l1.3 3.7c0.4 1.3 1 2.5 1.3 3.9 0.4 1.3 0.7 2.7 1 4q0.3 2.1 0.6 4.2c0 1.4 0.1 2.8 0 4.2-0.3 1.4-0.2 2.8-0.7 4.2-0.3 1.4-0.6 2.7-1.2 4-0.5 1.4-1.2 2.6-1.9 3.8-1.5 2.3-3.3 4.5-5.4 6.2-2.1 1.8-4.5 3.2-6.9 4.3-2.5 1.1-5.1 1.8-7.7 2.4 2.6-0.9 5-2 7.2-3.3 2.2-1.4 4.3-2.9 6.1-4.8 1.8-1.8 3.2-3.9 4.4-6.1 0.5-1.2 1-2.3 1.3-3.5 0.5-1.2 0.7-2.4 0.9-3.6 0.3-1.2 0.1-2.5 0.2-3.7 0-1.2-0.1-2.5-0.2-3.7l-0.7-3.7-1.1-3.6c-0.4-1.2-1-2.3-1.4-3.5l-1.6-3.7q0-0.1 0-0.1c5.2 22.6-9.9 33.5-23.8 35.4-14.6 2-26.6-14.7-24-26q6.7 19.3 20 4.6c7-7.7-22.6-22-16.6-44 6-22 24.6-16 19.3-46.6-0.1-0.5-1-20.1 6.3-27.9q0.7-0.8 1.5-1.5 0.3-0.2 0.5-0.4 0.6-0.5 1.2-1c0.6-0.5 1.3-0.9 1.9-1.3 0.4 17.6 5.4 34.7 17.4 49.9 4.5 5.7 9.6 11 15.1 15.6zm-7.6 11.5c-6.8 9.7-16.9 8.8-13.3 24.3q0-0.5-0.1-1c-0.1-0.7 0.1-1.6 0.1-2.3l0.2-1.3 0.3-1.2c0.3-0.7 0.5-1.6 1-2.2 0.4-0.7 0.7-1.5 1.2-2.1 1.9-2.5 3.9-4.2 5.5-6 1.7-1.9 3.1-3.7 4.1-5.8l0.7-1.6z"/></svg>