<svg version="1.2" xmlns="http://www.w3.org/2000/svg" viewBox="0 0 305 335" width="305" height="335"><defs><clipPath clipPathUnits="userSpaceOnUse" id="cp1"><path d="m304.09 335.01h-148.66-5.61-148.67c-11.13-104.81 92.25-109.51 109.74-118.89 6.71-3.6 10.14-12.49 11.82-22.09 9.24 2.02 19.21 3.13 29.62 3.13 10.63 0 20.79-1.16 30.18-3.26 1.68 9.65 5.1 18.6 11.84 22.22 17.5 9.38 120.88 14.08 109.74 118.89z"/></clipPath></defs><style>.a{fill:#352c38}.b{fill:#2a242d}.c{fill:#965450}.d{fill:#76413b}.e{fill:#fc6a5a}.f{fill:none;stroke:#fdedee;stroke-width:6.1}.g{opacity:.3;fill:#2a242d}.h{fill:#fff}</style><path class="a" d="m157.3 167.8l-1.8 62q-102.9 46.4-106.5 23.5-3.6-22.9 10.2-30.1-18 10.2-21.6-7.8-3.7-18.1 19.2-22.3-15.6 6-16.2-1.2-0.6-7.2 15.6-6-15-7.8-11.4-20.5 3.6-12.6 22.3-2.4-16.9-9.6-6.7-21 10.3-11.5 24.7 4.8-9.6-3-7.2-16.9 2.4-13.8 18.6-10.2z"/><path class="a" d="m215.3 119.7q16.3-3.6 18.7 10.2 2.4 13.9-7.2 16.9 14.4-16.3 24.7-4.8 10.2 11.4-6.7 21 18.7-10.2 22.3 2.4 3.6 12.7-11.4 20.5 16.2-1.2 15.6 6-0.6 7.2-16.2 1.2 22.8 4.2 19.2 22.3-3.6 18-21.6 7.8 13.8 7.2 10.2 30.1-3.6 22.9-106.5-23.5l-1.9-62z"/><path class="b" d="m157.3 167.8l-1.8 62q-102.9 46.4-106.5 23.5-3.6-22.9 10.2-30.1-18 10.2-21.6-7.8-3.7-18.1 19.2-22.3-15.6 6-16.2-1.2-0.6-7.2 15.6-6-15-7.8-11.4-20.5 3.6-12.6 22.3-2.4-16.9-9.6-6.7-21 10.3-11.5 24.7 4.8-9.6-3-7.2-16.9 2.4-13.8 18.6-10.2z"/><path class="b" d="m215.3 119.7q16.3-3.6 18.7 10.2 2.4 13.9-7.2 16.9 14.4-16.3 24.7-4.8 10.2 11.4-6.7 21 18.7-10.2 22.3 2.4 3.6 12.7-11.4 20.5 16.2-1.2 15.6 6-0.6 7.2-16.2 1.2 22.8 4.2 19.2 22.3-3.6 18-21.6 7.8 13.8 7.2 10.2 30.1-3.6 22.9-106.5-23.5l-1.9-62z"/><path class="c" d="m299.9 335h-144.2-5.4-144.2c-10.8-103.3 89.5-107.9 106.4-117.2q17-9.3 12.4-54l25.4 1.7v-1.7l2.7 0.8 2.7-0.8v1.7l25.4-1.7q-4.6 44.7 12.4 54c16.9 9.3 117.2 13.9 106.4 117.2z"/><path class="d" d="m124.9 163.8l25.4 1.7v-1.7l2.7 0.8 2.7-0.8v1.7l25.4-1.7q-1.8 17.7 1.1 33.1-30.4 4.8-60.9 9.4 6.3-16.5 3.6-42.5z"/><path class="e" d="m304.1 335h-148.7-5.6-148.6c-11.2-104.8 92.2-109.5 109.7-118.9 6.7-3.6 10.1-12.5 11.8-22.1 9.2 2.1 19.2 3.2 29.6 3.2 10.7 0 20.8-1.2 30.2-3.3 1.7 9.6 5.1 18.6 11.9 22.2 17.4 9.4 120.8 14.1 109.7 118.9z"/><g clip-path="url(#cp1)" style="opacity:.9"><path class="f" d="m-16.8 208h332.6"/><path class="f" d="m-16.8 224.2h332.6"/><path class="f" d="m-16.8 240.4h332.6"/><path class="f" d="m-16.8 256.6h332.6"/><path class="f" d="m-16.8 272.8h332.6"/><path class="f" d="m-16.8 289.1h332.6"/><path class="f" d="m-16.8 305.3h332.6"/><path class="f" d="m-16.8 321.5h332.6"/></g><path class="g" d="m285.1 260.5c14 16.5 22.6 40.1 19 74.5h-293.1c91.7-23.8 182.2-52 274.1-74.5z"/><path class="d" d="m94.5 127.4c-8.8 2.6-18.3-6.2-20.4-22.5-2.1-16.1 10.1-18 11.3-18.1 1.1-0.4 12.9-4 17.9 11.5 5.1 15.6 0.3 27.6-8.8 29.1z"/><path class="d" d="m203.1 98.3c5-15.5 16.9-11.9 18-11.5 1.1 0.1 13.4 2 11.3 18.1-2.2 16.3-11.6 25.1-20.4 22.5-9.1-1.5-13.9-13.5-8.9-29.1z"/><path class="c" d="m91.2 74.9c6.2-68 57.9-64.2 62.7-63.7 4.9-0.5 56.6-4.3 62.8 63.7 6.2 68.3-24.2 113-62.8 110.5-38.5 2.5-68.9-42.2-62.7-110.5z"/><path class="d" d="m162.9 106.8c0.8 1.6 1.5 3.2 2.1 4.8q0.8 2.5 1.5 5c0.2 0.8 0.4 1.6 0.6 2.5q0.3 1.2 0.5 2.5 0.5 2.5 0.8 5.1l0.1 0.8-0.5 0.4q-2 1.9-4.2 3.7c-1.5 1.2-3 2.4-4.5 3.4 1-1.6 2.1-3.1 3.3-4.6q1.7-2.2 3.5-4.4l-0.3 1.2q-0.8-2.4-1.4-4.9-0.3-1.3-0.5-2.6c-0.2-0.8-0.3-1.6-0.5-2.5q-0.4-2.5-0.5-5.1c-0.1-1.7-0.2-3.5 0-5.3z"/><path class="h" d="m180.3 147.3c-12.3 11.9-33.1 11.3-48.9 0.6"/><path class="a" d="m202.7 83.8q-0.6-0.3-1.5-0.8-0.7-0.4-1.6-0.9-1-0.5-2.1-1.1c-0.8-0.4-1.6-0.8-2.5-1.2q-0.7-0.3-1.3-0.6-0.7-0.2-1.4-0.5c-1-0.4-2-0.5-2.9-0.9-1-0.1-2-0.5-3-0.4l-1.4-0.1q-0.8 0-1.5 0.1c-1-0.1-1.9 0.3-2.8 0.4-1 0.2-1.8 0.6-2.7 0.8l-0.7 0.3-0.6 0.3q-0.6 0.2-1.2 0.5c-0.7 0.4-1.5 0.6-2.1 1-0.6 0.4-1.1 0.7-1.6 1q-0.9 0.5-1.5 0.7 0.2-0.5 0.7-1.5c0.3-0.5 0.6-1 1-1.7 0.4-0.7 1-1.3 1.7-2 0.7-0.6 1.3-1.5 2.3-2.1 0.9-0.6 1.9-1.4 3.1-1.8q0.8-0.4 1.8-0.7c0.6-0.2 1.3-0.4 1.9-0.4q1-0.2 2.1-0.3 1 0 2 0.1c1.4 0 2.7 0.5 4 0.8q0.9 0.3 1.8 0.7 0.9 0.4 1.6 0.9 0.8 0.5 1.5 0.9 0.7 0.6 1.4 1.1c0.8 0.7 1.5 1.5 2.2 2.1 1.2 1.4 2.1 2.8 2.6 3.7q0.5 1 0.7 1.6z"/><path class="a" d="m138.3 83.8q-0.5-0.3-1.5-0.8-0.7-0.4-1.6-0.9-1-0.5-2.1-1.1c-0.8-0.4-1.6-0.8-2.5-1.2q-0.6-0.3-1.3-0.6-0.7-0.2-1.4-0.5c-0.9-0.4-1.9-0.5-2.9-0.9-1-0.1-2-0.5-2.9-0.4l-1.5-0.1q-0.7 0-1.5 0.1c-1-0.1-1.9 0.3-2.8 0.4-1 0.2-1.8 0.6-2.7 0.8l-0.7 0.3-0.6 0.3q-0.6 0.2-1.1 0.5c-0.8 0.4-1.6 0.6-2.1 1-0.6 0.4-1.2 0.7-1.7 1q-0.9 0.5-1.5 0.7 0.2-0.5 0.8-1.5c0.2-0.5 0.5-1 1-1.7 0.3-0.7 0.9-1.3 1.6-2 0.7-0.6 1.3-1.5 2.3-2.1 1-0.6 1.9-1.4 3.1-1.8q0.9-0.4 1.8-0.7c0.6-0.2 1.3-0.4 1.9-0.4q1.1-0.2 2.1-0.3 1 0 2 0.1c1.4 0 2.7 0.5 4 0.8q0.9 0.3 1.8 0.7 0.9 0.4 1.6 0.9 0.8 0.5 1.6 0.9 0.6 0.6 1.3 1.1c0.9 0.7 1.5 1.5 2.2 2.1 1.2 1.4 2.1 2.8 2.6 3.7q0.5 1 0.7 1.6z"/><path class="a" d="m136.3 108.4q-0.2-0.5-0.5-1.5c-0.3-0.9-0.8-2.2-1.6-3.6-0.7-1.4-1.8-2.9-3.3-4.1-0.7-0.5-1.6-1-2.5-1.3-0.5-0.1-0.9-0.3-1.4-0.3-0.5-0.1-1-0.2-1.5-0.1-0.5 0-1.1-0.1-1.5 0-0.5 0.1-1.1 0.1-1.6 0.3-0.8 0.3-1.7 0.6-2.4 1.1-0.7 0.6-1.3 1.3-1.8 2q-0.7 1.1-1.2 2.2c-0.6 1.5-0.9 2.8-1 3.8q-0.2 1-0.3 1.5-0.1-0.5-0.2-1.5c-0.1-1-0.2-2.5 0.2-4.2 0.2-0.9 0.5-1.8 0.9-2.7 0.5-1 1.1-1.9 2.1-2.7q1.3-1.2 3.3-1.8c0.6-0.2 1.1-0.2 1.6-0.3 0.8-0.1 1.3-0.1 1.9-0.1 0.6 0 1.3 0.1 1.9 0.2 0.6 0.1 1.2 0.2 1.8 0.5 0.6 0.1 1.1 0.4 1.6 0.8 0.5 0.2 1 0.6 1.4 1 1.8 1.6 2.8 3.5 3.3 5.2 0.6 1.6 0.7 3.1 0.8 4.1q0 1 0 1.5z"/><path class="a" d="m194.1 107.5q-0.1-0.6-0.4-1.5c-0.3-0.9-0.8-2.2-1.6-3.6-0.8-1.4-1.8-3-3.4-4.1-0.7-0.6-1.5-1-2.5-1.3-0.4-0.2-0.9-0.3-1.4-0.3-0.5-0.1-1-0.2-1.5-0.2-0.5 0.1-1.1 0-1.4 0.1-0.5 0.1-1.2 0.1-1.6 0.3-0.8 0.2-1.7 0.5-2.4 1.1-0.8 0.5-1.4 1.2-1.9 1.9q-0.7 1.1-1.1 2.3c-0.6 1.4-0.9 2.8-1.1 3.8q-0.2 0.9-0.2 1.5-0.2-0.6-0.3-1.6c-0.1-0.9-0.1-2.4 0.2-4.1 0.2-0.9 0.5-1.8 1-2.8 0.5-0.9 1.1-1.9 2-2.6q1.4-1.2 3.3-1.8c0.6-0.2 1.1-0.2 1.7-0.3 0.7-0.2 1.2-0.1 1.9-0.1 0.6-0.1 1.2 0.1 1.8 0.2 0.6 0 1.2 0.2 1.8 0.4 0.6 0.2 1.1 0.5 1.7 0.8 0.5 0.3 0.9 0.7 1.4 1.1 1.7 1.5 2.7 3.5 3.3 5.1 0.5 1.7 0.7 3.1 0.7 4.1q0.1 1 0 1.6z"/><path class="a" d="m156 11.2q3.1 41.7-60.1 59.1 1.8 21.1-3.6 41-20.4-29.5-10.8-64.5c9.6-34.9 58.4-62.8 74.5-35.6z"/><path class="a" d="m227.4 46.8q9.7 35-12 69.9-5.4-19.9-2.4-46.4-63.2-17.4-62-59.1c16-27.2 66.8 0.7 76.4 35.6z"/><path class="b" d="m95.9 70.3q1.8 21.1-3.6 41-20.4-29.5-10.8-64.5 0.5-1.7 1.1-3.3c5.5 9.1 13.7 17.4 22.9 23.8-3 1.1-6.2 2.1-9.6 3z"/></svg>