<svg version="1.2" xmlns="http://www.w3.org/2000/svg" viewBox="0 0 300 349" width="300" height="349"><defs><clipPath clipPathUnits="userSpaceOnUse" id="cp1"><path d="m298.93 349.01h-146.21-5.51-146.21c-9.56-91.46 66.65-106.68 97.65-115.3 11.87 12.2 30.44 20.06 51.31 20.06 20.88 0 39.44-7.86 51.32-20.06 30.99 8.62 107.2 23.84 97.65 115.3z"/></clipPath></defs><style>.a{fill:#ffac9d}.b{fill:#cc887f}.c{fill:#6f96bd}.d{fill:#352c38}.e{fill:#d3b9a3}.f{fill:none;stroke:#765e69;stroke-width:2.9}.g{fill:#a9c7db;stroke:#765e69;stroke-width:2.7}.h{fill:#fff}.i{fill:#fddec0}</style><path class="a" d="m296.9 349h-144.2-5.4-144.2c-10.8-103.3 89.5-107.9 106.4-117.2q17-9.3 12.4-54l25.4 1.7v-1.7l2.7 0.8 2.7-0.8v1.7l25.4-1.7q-4.6 44.7 12.4 54c16.9 9.3 117.2 13.9 106.4 117.2z"/><path class="b" d="m121.9 177.8l25.4 1.7v-1.7l2.7 0.8 2.7-0.8v1.7l25.4-1.7q-1.8 17.7 1.1 33.1-30.4 4.8-60.9 9.4 6.3-16.5 3.6-42.5z"/><path class="c" d="m298.9 349h-146.2-5.5-146.2c-9.6-91.4 66.7-106.7 97.6-115.3 11.9 12.2 30.5 20.1 51.4 20.1 20.8 0 39.4-7.9 51.3-20.1 31 8.6 107.2 23.9 97.6 115.3z"/><g clip-path="url(#cp1)"><path class="d" d="m241.2 240.9q4 6 7.9 11.9c0.3 0.4-0.2 0.9-0.6 1q-7.5 1.6-15 3.2c-0.4 0.1-1.3-0.1-1-0.8q3.5-7.5 7.1-15c0.3-0.7 2.1-0.7 1.7 0.3q-3.6 7.5-7.1 14.9-0.5-0.3-1-0.7 7.5-1.6 14.9-3.2-0.3 0.5-0.6 1.1-3.9-6-7.9-11.9c-0.5-0.8 1.2-1.5 1.6-0.8z"/><path class="d" d="m212 241q3.9 5.9 7.9 11.8c0.2 0.4-0.4 0.8-0.7 0.9q-7.5 1.5-15 3.1c-0.4 0.1-1.2 0.1-1-0.5q3.6-7.5 7.1-15c0.3-0.6 2.1-0.7 1.7 0.1q-3.6 7.5-7.1 15-0.5-0.3-1-0.6 7.5-1.6 15-3.1-0.3 0.4-0.7 0.8-3.9-5.9-7.8-11.8c-0.5-0.7 1.2-1.3 1.6-0.7z"/><path class="d" d="m182.7 241q4 5.9 7.9 11.8c0.3 0.4-0.4 0.7-0.7 0.8q-7.5 1.5-15 3.1c-0.1 0-1.2 0.2-1-0.3q3.6-7.4 7.1-14.9c0.3-0.6 2-0.7 1.8-0.3q-3.6 7.5-7.1 15-0.5-0.1-1-0.3 7.5-1.5 15-3.1-0.4 0.3-0.7 0.7-4-5.9-7.9-11.8c-0.4-0.6 1.3-1.1 1.6-0.7z"/><path class="d" d="m153.5 241.1q4 5.9 7.9 11.8c0.2 0.3-0.9 0.6-1 0.7q-7.5 1.5-15 3.1c-0.1 0-0.9 0.1-0.7-0.2q3.5-7.5 7.1-15c0.2-0.5 1.9-0.7 1.7-0.3q-3.5 7.5-7.1 15-0.4-0.1-0.7-0.3 7.5-1.6 15-3.1-0.5 0.3-1 0.6-4-5.9-7.9-11.8c-0.2-0.3 1.4-1 1.7-0.5z"/><path class="d" d="m124.2 241q3.9 5.9 7.9 11.8c0.2 0.4-0.3 0.8-0.7 0.9q-7.5 1.6-15 3.2c-0.4 0-1.2 0-1-0.6q3.6-7.5 7.1-15c0.3-0.7 2.1-0.7 1.7 0.1q-3.5 7.5-7.1 15-0.5-0.3-1-0.6 7.5-1.6 15-3.2-0.3 0.5-0.6 0.9-4-5.9-7.9-11.8c-0.5-0.7 1.2-1.3 1.6-0.7z"/><path class="d" d="m95 241.1q3.9 5.9 7.9 11.8c0.2 0.3-0.9 0.6-1.1 0.6q-7.4 1.6-14.9 3.2c-0.1 0-0.9 0.1-0.8-0.2q3.6-7.5 7.1-15c0.3-0.5 1.9-0.7 1.8-0.3q-3.6 7.5-7.1 15-0.4-0.1-0.7-0.2 7.5-1.6 14.9-3.2-0.5 0.3-1 0.6-3.9-5.9-7.9-11.8c-0.1-0.3 1.5-1 1.8-0.5z"/><path class="d" d="m65.7 241q3.9 5.9 7.8 11.8c0.3 0.4-0.3 0.8-0.6 0.9q-7.5 1.5-15 3.1c-0.4 0.1-1.3 0.1-1-0.5q3.6-7.5 7.1-15c0.3-0.6 2-0.7 1.7 0.1q-3.6 7.5-7.1 15-0.5-0.3-1-0.6 7.5-1.5 15-3.1-0.3 0.4-0.7 0.8-3.9-5.9-7.9-11.8c-0.4-0.7 1.3-1.3 1.7-0.7z"/><path class="d" d="m36.4 241q3.9 5.9 7.9 11.8c0.2 0.4-0.4 0.7-0.7 0.8q-7.5 1.6-15 3.1c-0.1 0.1-1.2 0.2-1-0.3q3.6-7.5 7.1-14.9c0.3-0.6 2-0.8 1.8-0.3q-3.6 7.5-7.1 15-0.5-0.1-1-0.3 7.5-1.6 15-3.1-0.4 0.3-0.7 0.7-4-5.9-7.9-11.8c-0.4-0.6 1.3-1.2 1.6-0.7z"/><path class="d" d="m7.1 241q4 5.9 7.9 11.8c0.3 0.4-0.3 0.8-0.7 0.9q-7.4 1.6-14.9 3.2c-0.4 0.1-1.3 0-1-0.7q3.5-7.4 7.1-14.9c0.3-0.7 2.1-0.8 1.6 0.1q-3.5 7.5-7.1 15-0.4-0.3-0.9-0.6 7.5-1.6 15-3.2-0.4 0.5-0.7 0.9-3.9-5.9-7.9-11.8c-0.5-0.7 1.2-1.3 1.6-0.7z"/><path class="d" d="m270.6 241.1q3.9 5.9 7.9 11.8c0.1 0.3-1 0.6-1.1 0.6q-7.5 1.6-15 3.1c0 0.1-0.8 0.2-0.7-0.1q3.6-7.5 7.1-15c0.2-0.4 1.9-0.6 1.8-0.3q-3.6 7.5-7.1 15-0.4-0.1-0.7-0.2 7.5-1.6 14.9-3.1-0.5 0.2-1 0.5-3.9-5.9-7.9-11.8c-0.1-0.2 1.5-0.9 1.8-0.5z"/><path class="d" d="m258.3 266.2q4 5.9 7.9 11.8c0.3 0.5-0.2 1-0.6 1q-7.5 1.6-15 3.2c-0.4 0.1-1.3-0.1-1-0.8q3.6-7.5 7.1-14.9c0.4-0.8 2.1-0.7 1.7 0.2q-3.6 7.5-7.1 15-0.5-0.4-1-0.8 7.5-1.6 15-3.1-0.3 0.5-0.7 1-3.9-5.9-7.8-11.8c-0.6-0.8 1.1-1.5 1.5-0.8z"/><path class="d" d="m229.1 266.2q3.9 5.9 7.9 11.8c0.3 0.5-0.3 0.8-0.7 0.9q-7.5 1.6-15 3.2c-0.3 0-1.2 0-0.9-0.6q3.5-7.5 7.1-15c0.2-0.6 2-0.7 1.6 0.1q-3.5 7.5-7.1 15-0.5-0.3-0.9-0.5 7.4-1.6 14.9-3.2-0.3 0.4-0.6 0.9-4-5.9-7.9-11.9c-0.5-0.6 1.2-1.2 1.6-0.7z"/><path class="d" d="m199.8 266.3q4 5.9 7.9 11.8c0.3 0.3-0.4 0.6-0.7 0.7q-7.5 1.6-15 3.1c-0.1 0.1-1.2 0.2-0.9-0.2q3.5-7.5 7.1-15c0.2-0.5 1.9-0.7 1.7-0.2q-3.6 7.4-7.1 14.9-0.5-0.1-1-0.2 7.5-1.6 15-3.2-0.4 0.4-0.7 0.7-4-5.9-7.9-11.8c-0.4-0.5 1.3-1.1 1.6-0.6z"/><path class="d" d="m170.6 266.3q4 6 7.9 11.9c0.2 0.3-0.9 0.6-1 0.6q-7.5 1.6-15 3.2c-0.1 0-0.9 0-0.7-0.3q3.5-7.5 7.1-15c0.2-0.5 1.9-0.6 1.7-0.3q-3.5 7.5-7.1 15-0.3-0.1-0.7-0.2 7.5-1.6 15-3.2-0.5 0.3-1 0.6-4-5.9-7.9-11.8c-0.2-0.3 1.4-0.9 1.7-0.5z"/><path class="d" d="m141.3 266.2q3.9 5.9 7.9 11.8c0.3 0.5-0.3 0.9-0.7 0.9q-7.5 1.6-15 3.2c-0.3 0.1-1.2 0-0.9-0.6q3.5-7.5 7.1-15c0.3-0.6 2-0.7 1.6 0.1q-3.5 7.5-7.1 15-0.5-0.3-0.9-0.6 7.4-1.6 14.9-3.1-0.3 0.4-0.6 0.9-4-5.9-7.9-11.9c-0.5-0.7 1.2-1.3 1.6-0.7z"/><path class="d" d="m112.1 266.3q3.9 6 7.9 11.9c0.2 0.3-0.9 0.6-1 0.6q-7.5 1.6-15 3.1c-0.1 0.1-0.9 0.1-0.7-0.2q3.5-7.5 7.1-15c0.2-0.5 1.9-0.6 1.7-0.3q-3.6 7.5-7.1 15-0.4-0.1-0.7-0.2 7.5-1.6 15-3.2-0.5 0.3-1.1 0.6-3.9-5.9-7.8-11.8c-0.2-0.3 1.4-0.9 1.7-0.5z"/><path class="d" d="m82.8 266.2q3.9 5.9 7.9 11.9c0.2 0.4-0.4 0.7-0.7 0.8q-7.5 1.6-15 3.1c-0.4 0.1-1.2 0.1-1-0.5q3.6-7.5 7.1-15c0.3-0.5 2.1-0.7 1.7 0.1q-3.6 7.5-7.1 15-0.5-0.3-1-0.5 7.5-1.6 15-3.2-0.3 0.4-0.7 0.9-3.9-6-7.8-11.9c-0.5-0.6 1.2-1.2 1.6-0.7z"/><path class="d" d="m53.5 266.2q4 6 7.9 11.9c0.3 0.4-0.4 0.7-0.7 0.7q-7.5 1.6-15 3.2c-0.1 0-1.2 0.1-1-0.3q3.6-7.5 7.1-15c0.3-0.5 2-0.7 1.8-0.2q-3.6 7.5-7.1 14.9-0.5-0.1-1-0.3 7.5-1.5 15-3.1-0.4 0.4-0.7 0.7-4-5.9-7.9-11.8c-0.4-0.6 1.3-1.1 1.6-0.7z"/><path class="d" d="m24.2 266.2q4 5.9 7.9 11.8c0.3 0.5-0.3 0.9-0.6 1q-7.5 1.5-15 3.1c-0.4 0.1-1.3 0-1-0.6q3.6-7.5 7.1-15c0.3-0.6 2.1-0.7 1.7 0.2q-3.6 7.4-7.1 14.9-0.5-0.3-1-0.6 7.5-1.6 15-3.1-0.4 0.4-0.7 0.9-3.9-5.9-7.9-11.8c-0.4-0.8 1.2-1.4 1.6-0.8z"/><path class="d" d="m287.7 266.3q3.9 6 7.9 11.9c0.1 0.2-1 0.5-1.1 0.5q-7.5 1.6-14.9 3.2c-0.1 0-0.9 0.1-0.7-0.2q3.5-7.5 7.1-15c0.2-0.4 1.8-0.5 1.7-0.3q-3.6 7.5-7.1 15-0.4-0.1-0.7-0.1 7.5-1.6 15-3.2-0.6 0.3-1.1 0.5-3.9-5.9-7.9-11.8c-0.1-0.2 1.5-0.9 1.8-0.5z"/><path class="d" d="m241.2 291.4q4 5.9 7.9 11.9c0.3 0.4-0.2 0.9-0.6 1q-7.5 1.6-15 3.1c-0.4 0.1-1.3-0.1-1-0.7q3.5-7.5 7.1-15c0.3-0.8 2.1-0.7 1.7 0.2q-3.6 7.5-7.1 15-0.5-0.4-1-0.7 7.5-1.6 14.9-3.2-0.3 0.5-0.6 1-3.9-5.9-7.9-11.8c-0.5-0.8 1.2-1.5 1.6-0.8z"/><path class="d" d="m212 291.5q3.9 5.9 7.9 11.8c0.2 0.4-0.4 0.8-0.7 0.9q-7.5 1.5-15 3.1c-0.4 0.1-1.2 0.1-1-0.5q3.6-7.5 7.1-15c0.3-0.6 2.1-0.8 1.7 0.1q-3.6 7.5-7.1 15-0.5-0.3-1-0.6 7.5-1.6 15-3.2-0.3 0.5-0.7 0.9-3.9-5.9-7.8-11.8c-0.5-0.7 1.2-1.3 1.6-0.7z"/><path class="d" d="m182.7 291.5q4 5.9 7.9 11.8c0.3 0.4-0.4 0.7-0.7 0.7q-7.5 1.6-15 3.2c-0.1 0-1.2 0.2-1-0.3q3.6-7.5 7.1-15c0.3-0.5 2-0.7 1.8-0.2q-3.6 7.5-7.1 15-0.5-0.2-1-0.3 7.5-1.6 15-3.1-0.4 0.3-0.7 0.7-4-5.9-7.9-11.9c-0.4-0.5 1.3-1 1.6-0.6z"/><path class="d" d="m153.5 291.6q4 5.9 7.9 11.8c0.2 0.3-0.9 0.6-1 0.6q-7.5 1.6-15 3.2c-0.1 0-0.9 0.1-0.7-0.3q3.5-7.5 7.1-14.9c0.2-0.5 1.9-0.7 1.7-0.3q-3.5 7.5-7.1 15-0.4-0.2-0.7-0.3 7.5-1.6 15-3.1-0.5 0.3-1 0.6-4-5.9-7.9-11.8c-0.2-0.4 1.4-1 1.7-0.5z"/><path class="d" d="m124.2 291.5q3.9 5.9 7.9 11.8c0.2 0.4-0.3 0.8-0.7 0.9q-7.5 1.6-15 3.1c-0.4 0.1-1.2 0.1-1-0.6q3.6-7.5 7.1-15c0.3-0.6 2.1-0.7 1.7 0.2q-3.5 7.5-7.1 15-0.5-0.3-1-0.6 7.5-1.6 15-3.2-0.3 0.5-0.6 0.9-4-5.9-7.9-11.8c-0.5-0.7 1.2-1.3 1.6-0.7z"/><path class="d" d="m95 291.6q3.9 5.9 7.9 11.8c0.2 0.3-0.9 0.6-1.1 0.6q-7.4 1.6-14.9 3.2c-0.1 0-0.9 0.1-0.8-0.3q3.6-7.4 7.1-14.9c0.3-0.5 1.9-0.7 1.8-0.3q-3.6 7.5-7.1 15-0.4-0.2-0.7-0.3 7.5-1.5 14.9-3.1-0.5 0.3-1 0.6-3.9-5.9-7.9-11.8c-0.1-0.3 1.5-1 1.8-0.5z"/><path class="d" d="m65.7 291.5q3.9 5.9 7.8 11.8c0.3 0.4-0.3 0.8-0.6 0.8q-7.5 1.6-15 3.2c-0.4 0.1-1.3 0.1-1-0.5q3.6-7.5 7.1-15c0.3-0.6 2-0.7 1.7 0.1q-3.6 7.5-7.1 14.9-0.5-0.2-1-0.5 7.5-1.6 15-3.1-0.3 0.4-0.7 0.8-3.9-5.9-7.9-11.8c-0.4-0.7 1.3-1.3 1.7-0.7z"/><path class="d" d="m36.4 291.5q3.9 5.9 7.9 11.8c0.2 0.4-0.4 0.7-0.7 0.8q-7.5 1.5-15 3.1c-0.1 0-1.2 0.2-1-0.3q3.6-7.5 7.1-15c0.3-0.5 2-0.7 1.8-0.2q-3.6 7.5-7.1 15-0.5-0.2-1-0.3 7.5-1.6 15-3.2-0.4 0.4-0.7 0.8-4-5.9-7.9-11.8c-0.4-0.6 1.3-1.2 1.6-0.7z"/><path class="d" d="m7.1 291.4q4 6 7.9 11.9c0.3 0.4-0.3 0.8-0.7 0.9q-7.4 1.6-14.9 3.1c-0.4 0.1-1.3 0.1-1-0.6q3.5-7.5 7.1-15c0.3-0.6 2.1-0.7 1.6 0.2q-3.5 7.5-7.1 15-0.4-0.3-0.9-0.6 7.5-1.6 15-3.2-0.4 0.5-0.7 0.9-3.9-5.9-7.9-11.8c-0.5-0.7 1.2-1.4 1.6-0.8z"/><path class="d" d="m270.6 291.6q3.9 5.9 7.9 11.8c0.1 0.3-1 0.5-1.1 0.6q-7.5 1.5-15 3.1c0 0-0.8 0.1-0.7-0.1q3.6-7.5 7.1-15c0.2-0.5 1.9-0.6 1.8-0.3q-3.6 7.5-7.1 14.9-0.4 0-0.7-0.1 7.5-1.6 14.9-3.2-0.5 0.3-1 0.6-3.9-5.9-7.9-11.8c-0.1-0.2 1.5-0.9 1.8-0.5z"/><path class="d" d="m241.2 341.9q4 5.9 7.9 11.8c0.3 0.5-0.2 1-0.6 1.1q-7.5 1.5-15 3.1c-0.4 0.1-1.3-0.1-1-0.7q3.5-7.5 7.1-15c0.3-0.8 2.1-0.7 1.7 0.2q-3.6 7.5-7.1 15-0.5-0.4-1-0.8 7.5-1.5 14.9-3.1-0.3 0.5-0.6 1-3.9-5.9-7.9-11.8c-0.5-0.8 1.2-1.5 1.6-0.8z"/><path class="d" d="m212 341.9q3.9 6 7.9 11.9c0.2 0.4-0.4 0.8-0.7 0.8q-7.5 1.6-15 3.2c-0.4 0.1-1.2 0-1-0.6q3.6-7.5 7.1-15c0.3-0.5 2.1-0.7 1.7 0.2q-3.6 7.4-7.1 14.9-0.5-0.2-1-0.5 7.5-1.6 15-3.2-0.3 0.5-0.7 0.9-3.9-5.9-7.8-11.8c-0.5-0.7 1.2-1.3 1.6-0.8z"/><path class="d" d="m182.7 342q4 5.9 7.9 11.8c0.3 0.4-0.4 0.7-0.7 0.7q-7.5 1.6-15 3.2c-0.1 0-1.2 0.1-1-0.3q3.6-7.5 7.1-15c0.3-0.5 2-0.7 1.8-0.2q-3.6 7.5-7.1 15-0.5-0.2-1-0.3 7.5-1.6 15-3.2-0.4 0.4-0.7 0.8-4-6-7.9-11.9c-0.4-0.5 1.3-1.1 1.6-0.6z"/><path class="d" d="m153.5 342.1q4 5.9 7.9 11.8c0.2 0.3-0.9 0.6-1 0.6q-7.5 1.6-15 3.2c-0.1 0-0.9 0-0.7-0.3q3.5-7.5 7.1-15c0.2-0.5 1.9-0.6 1.7-0.2q-3.5 7.5-7.1 14.9-0.4-0.1-0.7-0.2 7.5-1.6 15-3.2-0.5 0.3-1 0.7-4-6-7.9-11.9c-0.2-0.3 1.4-0.9 1.7-0.4z"/><path class="d" d="m124.2 341.9q3.9 5.9 7.9 11.9c0.2 0.4-0.3 0.8-0.7 0.9q-7.5 1.5-15 3.1c-0.4 0.1-1.2 0-1-0.6q3.6-7.5 7.1-15c0.3-0.6 2.1-0.7 1.7 0.2q-3.5 7.5-7.1 15-0.5-0.4-1-0.7 7.5-1.5 15-3.1-0.3 0.4-0.6 0.9-4-5.9-7.9-11.8c-0.5-0.7 1.2-1.4 1.6-0.8z"/><path class="d" d="m95 342.1q3.9 5.9 7.9 11.8c0.2 0.3-0.9 0.6-1.1 0.6q-7.4 1.6-14.9 3.2c-0.1 0-0.9 0-0.8-0.3q3.6-7.5 7.1-15c0.3-0.4 1.9-0.6 1.8-0.2q-3.6 7.5-7.1 14.9-0.4-0.1-0.7-0.2 7.5-1.6 14.9-3.1-0.5 0.3-1 0.6-3.9-6-7.9-11.9c-0.1-0.2 1.5-0.9 1.8-0.4z"/><path class="d" d="m65.7 341.9q3.9 6 7.8 11.9c0.3 0.4-0.3 0.7-0.6 0.8q-7.5 1.6-15 3.2c-0.4 0-1.3 0-1-0.6q3.6-7.5 7.1-14.9c0.3-0.6 2-0.8 1.7 0q-3.6 7.5-7.1 15-0.5-0.2-1-0.5 7.5-1.6 15-3.2-0.3 0.5-0.7 0.9-3.9-5.9-7.9-11.8c-0.4-0.7 1.3-1.3 1.7-0.8z"/><path class="d" d="m36.4 342q3.9 5.9 7.9 11.8c0.2 0.4-0.4 0.7-0.7 0.7q-7.5 1.6-15 3.2c-0.1 0-1.2 0.2-1-0.3q3.6-7.5 7.1-15c0.3-0.5 2-0.7 1.8-0.2q-3.6 7.5-7.1 15-0.5-0.2-1-0.3 7.5-1.6 15-3.2-0.4 0.4-0.7 0.8-4-5.9-7.9-11.9c-0.4-0.5 1.3-1.1 1.6-0.6z"/><path class="d" d="m7.1 341.9q4 5.9 7.9 11.9c0.3 0.4-0.3 0.8-0.7 0.9q-7.4 1.6-14.9 3.1c-0.4 0.1-1.3 0-1-0.6q3.5-7.5 7.1-15c0.3-0.6 2.1-0.7 1.6 0.2q-3.5 7.5-7.1 15-0.4-0.4-0.9-0.7 7.5-1.5 15-3.1-0.4 0.4-0.7 0.9-3.9-5.9-7.9-11.8c-0.5-0.7 1.2-1.4 1.6-0.8z"/><path class="d" d="m270.6 342.1q3.9 5.9 7.9 11.8c0.1 0.2-1 0.5-1.1 0.5q-7.5 1.6-15 3.2c0 0-0.8 0.1-0.7-0.2q3.6-7.5 7.1-14.9c0.2-0.5 1.9-0.6 1.8-0.4q-3.6 7.5-7.1 15-0.4-0.1-0.7-0.1 7.5-1.6 14.9-3.2-0.5 0.3-1 0.6-3.9-6-7.9-11.9c-0.1-0.2 1.5-0.9 1.8-0.4z"/><path class="d" d="m258.3 316.7q4 5.9 7.9 11.8c0.3 0.4-0.2 0.9-0.6 1q-7.5 1.6-15 3.2c-0.4 0.1-1.3-0.1-1-0.8q3.6-7.5 7.1-15c0.4-0.7 2.1-0.6 1.7 0.3q-3.6 7.5-7.1 15-0.5-0.4-1-0.8 7.5-1.6 15-3.2-0.3 0.6-0.7 1.1-3.9-5.9-7.8-11.8c-0.6-0.8 1.1-1.5 1.5-0.8z"/><path class="d" d="m229.1 316.7q3.9 5.9 7.9 11.8c0.3 0.4-0.3 0.8-0.7 0.9q-7.5 1.6-15 3.1c-0.3 0.1-1.2 0.1-0.9-0.5q3.5-7.5 7.1-15c0.2-0.6 2-0.7 1.6 0.1q-3.5 7.5-7.1 15-0.5-0.3-0.9-0.6 7.4-1.5 14.9-3.1-0.3 0.4-0.6 0.8-4-5.9-7.9-11.8c-0.5-0.6 1.2-1.3 1.6-0.7z"/><path class="d" d="m199.8 316.7q4 5.9 7.9 11.9c0.3 0.3-0.4 0.6-0.7 0.7q-7.5 1.6-15 3.1c-0.1 0.1-1.2 0.2-0.9-0.2q3.5-7.5 7.1-15c0.2-0.5 1.9-0.7 1.7-0.3q-3.6 7.5-7.1 15-0.5-0.1-1-0.2 7.5-1.6 15-3.2-0.4 0.4-0.7 0.7-4-5.9-7.9-11.8c-0.4-0.5 1.3-1.1 1.6-0.7z"/><path class="d" d="m170.6 316.8q4 5.9 7.9 11.9c0.2 0.3-0.9 0.6-1 0.6q-7.5 1.6-15 3.1c-0.1 0.1-0.9 0.1-0.7-0.2q3.5-7.5 7.1-15c0.2-0.5 1.9-0.7 1.7-0.3q-3.5 7.5-7.1 15-0.3-0.1-0.7-0.3 7.5-1.5 15-3.1-0.5 0.3-1 0.6-4-5.9-7.9-11.8c-0.2-0.3 1.4-1 1.7-0.5z"/><path class="d" d="m141.3 316.7q3.9 5.9 7.9 11.8c0.3 0.4-0.3 0.9-0.7 0.9q-7.5 1.6-15 3.2c-0.3 0.1-1.2 0-0.9-0.6q3.5-7.5 7.1-15c0.3-0.6 2-0.7 1.6 0.1q-3.5 7.5-7.1 15-0.5-0.3-0.9-0.6 7.4-1.6 14.9-3.2-0.3 0.5-0.6 1-4-6-7.9-11.9c-0.5-0.7 1.2-1.3 1.6-0.7z"/><path class="d" d="m112.1 316.8q3.9 5.9 7.9 11.9c0.2 0.2-0.9 0.5-1 0.6q-7.5 1.5-15 3.1c-0.1 0-0.9 0.1-0.7-0.2q3.5-7.5 7.1-15c0.2-0.5 1.9-0.6 1.7-0.3q-3.6 7.5-7.1 15-0.4-0.1-0.7-0.2 7.5-1.6 15-3.2-0.5 0.3-1.1 0.6-3.9-5.9-7.8-11.8c-0.2-0.3 1.4-0.9 1.7-0.5z"/><path class="d" d="m82.8 316.7q3.9 5.9 7.9 11.8c0.2 0.4-0.4 0.8-0.7 0.9q-7.5 1.6-15 3.1c-0.4 0.1-1.2 0.1-1-0.5q3.6-7.5 7.1-15c0.3-0.6 2.1-0.7 1.7 0.1q-3.6 7.5-7.1 15-0.5-0.3-1-0.5 7.5-1.6 15-3.2-0.3 0.4-0.7 0.8-3.9-5.9-7.8-11.8c-0.5-0.6 1.2-1.2 1.6-0.7z"/><path class="d" d="m53.5 316.7q4 5.9 7.9 11.9c0.3 0.3-0.4 0.6-0.7 0.7q-7.5 1.6-15 3.2c-0.1 0-1.2 0.1-1-0.3q3.6-7.5 7.1-15c0.3-0.6 2-0.8 1.8-0.3q-3.6 7.5-7.1 15-0.5-0.1-1-0.3 7.5-1.5 15-3.1-0.4 0.3-0.7 0.7-4-5.9-7.9-11.8c-0.4-0.6 1.3-1.1 1.6-0.7z"/><path class="d" d="m24.2 316.7q4 5.9 7.9 11.8c0.3 0.4-0.3 0.9-0.6 0.9q-7.5 1.6-15 3.2c-0.4 0.1-1.3 0-1-0.6q3.6-7.5 7.1-15c0.3-0.7 2.1-0.7 1.7 0.1q-3.6 7.5-7.1 15-0.5-0.3-1-0.6 7.5-1.6 15-3.2-0.4 0.5-0.7 1-3.9-6-7.9-11.9c-0.4-0.7 1.2-1.3 1.6-0.7z"/><path class="d" d="m287.7 316.8q3.9 5.9 7.9 11.9c0.1 0.2-1 0.5-1.1 0.5q-7.5 1.6-14.9 3.2c-0.1 0-0.9 0.1-0.7-0.2q3.5-7.5 7.1-15c0.2-0.4 1.8-0.5 1.7-0.3q-3.6 7.5-7.1 15-0.4-0.1-0.7-0.2 7.5-1.5 15-3.1-0.6 0.3-1.1 0.5-3.9-5.9-7.9-11.8c-0.1-0.2 1.5-0.9 1.8-0.5z"/></g><path class="e" d="m125.6 171.7q-25.6-6.3-48 3.1c-22.4 9.4-19.3-54.1-17.5-56.3q1.7-2.2 43-27.3z"/><path class="e" d="m197 91.8q39.8 27.5 41.4 29.8c1.6 2.3 0.9 65.9-20.8 55.2q-21.8-10.7-47.7-5.9z"/><path class="b" d="m91.5 141.4c-8.8 2.6-18.3-6.2-20.4-22.5-2.1-16.1 10.1-18 11.3-18.1 1.1-0.4 12.9-4 17.9 11.5 5.1 15.6 0.3 27.6-8.8 29.1z"/><path class="b" d="m200.1 112.3c5-15.5 16.9-11.9 18-11.5 1.1 0.1 13.4 2 11.3 18.1-2.2 16.3-11.6 25.1-20.4 22.5-9.1-1.5-13.9-13.5-8.9-29.1z"/><path class="a" d="m88.2 88.9c6.2-68 57.9-64.2 62.7-63.7 4.9-0.5 56.6-4.3 62.8 63.7 6.2 68.3-24.2 113-62.8 110.5-38.5 2.5-68.9-42.2-62.7-110.5z"/><path class="f" d="m221.3 107l-16.6 13.4-38.6-0.6q-13.4-13-25.7 0.6l-42.1-2.1-17.4-13.3"/><circle class="g" cx="119.7" cy="118.6" r="21"/><circle class="g" cx="184.7" cy="118.6" r="21"/><path class="b" d="m159.9 122.5c0.8 1.6 1.5 3.2 2.1 4.8q0.8 2.5 1.5 4.9c0.2 0.9 0.4 1.7 0.6 2.5q0.3 1.3 0.5 2.6 0.5 2.5 0.8 5l0.1 0.8-0.5 0.4q-2 1.9-4.2 3.7c-1.5 1.2-3 2.4-4.5 3.5 1-1.6 2.1-3.1 3.3-4.6q1.7-2.3 3.5-4.4l-0.3 1.2q-0.8-2.5-1.4-5-0.3-1.2-0.5-2.5c-0.2-0.8-0.3-1.7-0.5-2.5q-0.4-2.6-0.5-5.1c-0.1-1.8-0.2-3.5 0-5.3z"/><path class="h" d="m177.3 162.9c-12.3 12-33.1 11.3-48.9 0.7"/><path class="d" d="m199.7 99.5q-0.6-0.3-1.5-0.9-0.7-0.3-1.6-0.9-1-0.5-2.1-1.1c-0.8-0.3-1.6-0.8-2.5-1.1q-0.7-0.3-1.3-0.6-0.7-0.3-1.4-0.5c-1-0.4-2-0.6-2.9-0.9-1-0.1-2-0.5-3-0.5l-1.4-0.1q-0.8 0.1-1.5 0.1c-1 0-1.9 0.4-2.8 0.5-1 0.1-1.8 0.6-2.7 0.8l-0.7 0.2-0.6 0.3q-0.6 0.3-1.2 0.6c-0.7 0.3-1.5 0.6-2.1 1-0.6 0.4-1.1 0.7-1.6 0.9q-0.9 0.5-1.5 0.8 0.2-0.6 0.7-1.5c0.3-0.5 0.6-1.1 1-1.7 0.4-0.7 1-1.3 1.7-2 0.7-0.7 1.3-1.6 2.3-2.1 0.9-0.6 1.9-1.4 3.1-1.8q0.8-0.4 1.8-0.7c0.6-0.3 1.3-0.4 1.9-0.5q1-0.1 2.1-0.2 1 0 2 0.1c1.4 0 2.7 0.5 4 0.8q0.9 0.3 1.8 0.7 0.9 0.4 1.6 0.9 0.8 0.4 1.5 0.9 0.7 0.6 1.4 1.1c0.8 0.6 1.5 1.4 2.2 2.1 1.2 1.4 2.1 2.7 2.6 3.7q0.5 1 0.7 1.6z"/><path class="d" d="m135.3 99.5q-0.5-0.3-1.5-0.9-0.7-0.3-1.6-0.9-1-0.5-2.1-1.1c-0.8-0.3-1.6-0.8-2.5-1.1q-0.6-0.3-1.3-0.6-0.7-0.3-1.4-0.5c-0.9-0.4-1.9-0.6-2.9-0.9-1-0.1-2-0.5-2.9-0.5l-1.5-0.1q-0.7 0.1-1.5 0.1c-1 0-1.9 0.4-2.8 0.5-1 0.1-1.8 0.6-2.7 0.8l-0.7 0.2-0.6 0.3q-0.6 0.3-1.1 0.6c-0.8 0.3-1.6 0.6-2.1 1-0.6 0.4-1.2 0.7-1.7 0.9q-0.9 0.5-1.5 0.8 0.2-0.6 0.8-1.5c0.2-0.5 0.5-1.1 1-1.7 0.3-0.7 0.9-1.3 1.6-2 0.7-0.7 1.3-1.6 2.3-2.1 1-0.6 1.9-1.4 3.1-1.8q0.9-0.4 1.8-0.7c0.6-0.3 1.3-0.4 1.9-0.5q1.1-0.1 2.1-0.2 1 0 2 0.1c1.4 0 2.7 0.5 4 0.8q0.9 0.3 1.8 0.7 0.9 0.4 1.6 0.9 0.8 0.4 1.6 0.9 0.6 0.6 1.3 1.1c0.9 0.6 1.5 1.4 2.2 2.1 1.2 1.4 2.1 2.7 2.6 3.7q0.5 1 0.7 1.6z"/><path class="d" d="m133.3 124.1q-0.2-0.6-0.5-1.5c-0.3-0.9-0.8-2.2-1.6-3.6-0.7-1.4-1.8-3-3.3-4.1-0.7-0.6-1.6-1-2.5-1.3-0.5-0.2-0.9-0.3-1.4-0.3-0.5-0.1-1-0.2-1.5-0.2-0.5 0.1-1.1 0-1.5 0.1-0.5 0.1-1.1 0.1-1.6 0.3-0.8 0.2-1.7 0.5-2.4 1.1-0.7 0.5-1.3 1.2-1.8 1.9q-0.7 1.1-1.2 2.3c-0.6 1.4-0.9 2.8-1 3.8q-0.2 0.9-0.3 1.5-0.1-0.6-0.2-1.6c-0.1-0.9-0.2-2.4 0.2-4.1 0.2-0.9 0.5-1.8 0.9-2.8 0.5-0.9 1.1-1.9 2.1-2.6q1.3-1.2 3.3-1.8c0.6-0.2 1.1-0.2 1.6-0.3 0.8-0.2 1.3-0.1 1.9-0.1 0.6-0.1 1.3 0.1 1.9 0.2 0.6 0 1.2 0.2 1.8 0.4 0.6 0.2 1.1 0.5 1.6 0.8 0.5 0.3 1 0.7 1.4 1.1 1.8 1.5 2.8 3.5 3.3 5.1 0.6 1.7 0.7 3.1 0.8 4.1q0 1 0 1.6z"/><path class="d" d="m191.1 123.2q-0.1-0.6-0.4-1.5c-0.3-0.9-0.8-2.2-1.6-3.7-0.8-1.4-1.8-2.9-3.4-4-0.7-0.6-1.5-1-2.5-1.3-0.4-0.2-0.9-0.3-1.4-0.4-0.5 0-1-0.1-1.5-0.1-0.5 0-1.1 0-1.4 0-0.5 0.1-1.2 0.2-1.6 0.3-0.8 0.3-1.7 0.6-2.4 1.2-0.8 0.5-1.4 1.2-1.9 1.9q-0.7 1.1-1.1 2.2c-0.6 1.5-0.9 2.9-1.1 3.8q-0.2 1-0.2 1.6-0.2-0.6-0.3-1.6c-0.1-1-0.1-2.4 0.2-4.2 0.2-0.8 0.5-1.8 1-2.7 0.5-0.9 1.1-1.9 2-2.7q1.4-1.2 3.3-1.7c0.6-0.2 1.1-0.3 1.7-0.4 0.7-0.1 1.2 0 1.9-0.1 0.6 0 1.2 0.1 1.8 0.2 0.6 0.1 1.2 0.3 1.8 0.5 0.6 0.2 1.1 0.5 1.7 0.8 0.5 0.3 0.9 0.7 1.4 1.1 1.7 1.5 2.7 3.4 3.3 5.1 0.5 1.7 0.7 3.1 0.7 4.1q0.1 1 0 1.6z"/><path class="i" d="m90.7 17.1q19.4-24.7 58-8.7c22-14 38.7-7.3 54.7 4.7l-51.3 26z"/><path class="i" d="m20.4 160.7q-0.2-0.7-0.7-1.9c-0.4-1.3-1-3.1-1.6-5.5-0.3-1.2-0.5-2.5-0.9-4q-0.3-2.2-0.7-4.7c-0.2-3.5-0.5-7.4 0.1-11.7 0.7-4.2 1.8-8.8 4.2-13.2 0.5-1.2 1.2-2.2 1.9-3.3 0.6-1.1 1.3-2.2 2.2-3.2 0.8-1 1.6-2.1 2.5-3.1q1.4-1.4 2.8-2.8c1-1 2.1-1.8 3.1-2.6 1.1-0.9 2.1-1.8 3.3-2.6 2.3-1.4 4.6-3.2 7.1-4.4q3.7-1.9 7.4-3.8c2.2-1.4 4.4-2.8 6.3-4.7 4-3.5 6.9-8 9.1-12.8 2.1-4.9 3.7-10 4.9-15 1.3-5.1 2.4-10 3.7-14.7 1.2-4.7 2.7-9.1 4.5-12.9 1.8-3.9 4-7.3 6.2-9.9 2.3-2.7 4.5-4.7 6.5-6.1 2-1.5 3.7-2.4 4.9-3q1.2-0.6 1.8-0.9-0.6 0.4-1.7 1.1c-1.1 0.7-2.6 1.8-4.5 3.4-1.8 1.6-3.9 3.7-5.8 6.4-1.9 2.7-3.7 6.1-5.2 9.9-1.6 3.8-2.8 8.1-3.8 12.7-1 4.7-2.1 9.7-3.2 14.8-1.1 5.1-2.5 10.5-4.8 15.7-2.3 5.2-5.5 10.3-9.9 14.3-2.1 2-4.6 3.6-7.2 5.2q-3.7 1.9-7.3 3.7l-1.8 1c-0.6 0.3-1.2 0.7-1.7 1q-1.7 1-3.4 2.1c-1.1 0.7-2.1 1.5-3.1 2.3-1.1 0.8-2.1 1.5-3 2.4q-1.4 1.3-2.7 2.6-1.3 1.4-2.4 2.8c-0.9 0.8-1.6 1.8-2.2 2.8-0.6 1-1.4 1.9-1.9 3q-0.8 1.5-1.6 3-0.6 1.6-1.2 3.1c-0.5 1-0.7 2.1-1 3.1-0.2 1-0.6 2-0.7 3q-0.3 1.5-0.5 3-0.1 1.4-0.2 2.8c-0.3 1.9-0.1 3.7-0.2 5.4q0.1 2.5 0.3 4.7 0.3 2.2 0.6 4c0.4 2.3 0.7 4.2 1 5.5q0.3 1.3 0.5 2z"/><path class="i" d="m153.1 47.7q-0.6-0.3-1.8-0.7c-1.3-0.4-3.1-1-5.4-1.4-2.4-0.4-5.3-0.7-8.5-0.2-3.1 0.4-6.5 1.9-9 4.7q-0.4 0.5-0.9 1.1-0.4 0.6-0.8 1.2-0.4 0.7-0.8 1.3c-0.2 0.4-0.4 1-0.6 1.4q-0.3 0.7-0.6 1.5l-0.2 0.6-0.3 0.9c-0.3 1.1-0.7 2.2-0.9 3.4-1.1 4.3-1.7 9.3-2.4 14.4-0.7 5.2-1.4 10.8-3.6 16.3-2.1 5.4-5.3 10.5-9.3 14.8-1 1.1-2.1 2.1-3.1 3.1-1.1 1-2.2 1.9-3.3 2.8-1.1 0.9-2.2 1.8-3.4 2.7q-1.7 1.2-3.5 2.4c-2.5 1.7-4.3 2.9-5.6 4.5-1.5 1.7-2.4 3.7-2.8 6-0.8 4.4 0 9.3 1 13.8 1.1 4.5 2.5 8.8 3.6 12.8 1.2 4.1 2.2 7.8 2.7 11.3 0.6 3.4 0.6 6.5 0.3 9-0.4 2.5-1.3 4.3-1.9 5.4q-0.7 1.1-1.1 1.7 0.3-0.6 0.9-1.8c0.4-1.2 0.9-3.1 0.9-5.4 0-2.4-0.4-5.3-1.3-8.5-0.9-3.2-2.2-6.7-3.6-10.6-1.5-3.9-3.2-8.1-4.6-12.8-1.4-4.6-2.8-9.9-1.9-15.8 0.4-2.9 1.6-6 3.5-8.4 0.5-0.7 1-1.3 1.6-1.8 0.6-0.6 1.3-1.3 1.8-1.6l1.7-1.3 1.7-1.2q1.6-1.1 3.2-2.3c1.1-0.8 2.1-1.6 3.1-2.5 1.1-0.8 2.1-1.7 3-2.6 1-0.9 2-1.8 2.8-2.8 3.7-3.8 6.5-8.2 8.4-13 1.9-4.7 3-9.8 3.8-14.9 0.8-5.2 1.7-10.2 3.2-15.1 0.4-1.1 0.8-2.2 1.2-3.3l0.3-0.8c0.2-0.4 0.3-0.6 0.4-0.9q0.5-0.8 0.9-1.7c0.2-0.5 0.5-1 0.8-1.5q0.5-0.8 1.1-1.5 0.5-0.7 1-1.4 0.6-0.6 1.3-1.2c3.3-3.2 7.6-4.5 11.1-4.6 3.6-0.2 6.6 0.6 8.9 1.3 2.4 0.7 4.1 1.7 5.3 2.2q1.2 0.6 1.7 1z"/><path class="i" d="m150.7 49.1q-18.5-14-28.5 6.7c-10 20.6-1.6 39.3-38 58-24.7 12.6 8 49.3-5.3 65.3q-5.6 0.7-13.1 0.7-3-7.5-4.4-14.7c-0.6 5.5 0.1 10.6 1.2 14.6-4-0.1-8.3-0.4-12.6-1.1q-7.9-15.5-5.3-38.8c-3.7 13.6-1.6 27.9 0.9 37.9-8.2-2-15.5-5.7-18.1-12.6-7.3-19.3-10.6-46 24-65.3 34.7-19.4 10.7-66 44-86.7 33.4-20.7 58.6-3.3 55.2 36z"/><path class="i" d="m278.5 160.7q0.2-0.7 0.5-2c0.3-1.3 0.6-3.2 1-5.5q0.3-1.8 0.6-4 0.2-2.2 0.3-4.7c-0.1-1.7 0.1-3.5-0.1-5.4q-0.2-1.4-0.3-2.8-0.2-1.5-0.5-3c-0.1-1-0.5-2-0.7-3-0.3-1-0.5-2.1-1-3.1q-0.6-1.5-1.2-3.1-0.8-1.5-1.6-3c-0.5-1.1-1.2-2-1.9-3-0.6-1-1.3-2-2.1-2.8q-1.2-1.4-2.5-2.8-1.3-1.3-2.7-2.6c-0.9-0.9-1.9-1.6-3-2.4-1-0.8-2-1.6-3.1-2.3q-1.7-1.1-3.4-2.1c-0.5-0.3-1.1-0.7-1.7-1l-1.8-1q-3.6-1.8-7.3-3.7c-2.6-1.6-5.1-3.2-7.2-5.2-4.4-4-7.6-9.1-9.9-14.3-2.3-5.2-3.6-10.6-4.8-15.7-1.1-5.1-2.2-10.1-3.2-14.8-1-4.6-2.2-8.9-3.7-12.7-1.6-3.8-3.3-7.2-5.3-9.9-1.9-2.7-4-4.8-5.8-6.4-1.9-1.6-3.4-2.7-4.5-3.4q-1.1-0.7-1.7-1.1 0.7 0.3 1.8 0.9c1.2 0.6 2.9 1.5 4.9 3 2 1.4 4.2 3.4 6.5 6.1 2.2 2.6 4.4 6 6.2 9.9 1.8 3.8 3.3 8.2 4.5 12.9 1.3 4.7 2.4 9.6 3.7 14.7 1.3 5 2.8 10.1 4.9 15 2.2 4.8 5.2 9.3 9.1 12.8 1.9 1.9 4.1 3.3 6.3 4.7q3.7 1.9 7.4 3.8c2.5 1.2 4.8 3 7.1 4.4 1.2 0.8 2.2 1.7 3.3 2.6 1 0.8 2.1 1.6 3.1 2.6q1.4 1.4 2.8 2.8c0.9 1 1.7 2.1 2.5 3.1 0.9 1 1.6 2.1 2.2 3.2 0.7 1.1 1.5 2.1 1.9 3.3 2.4 4.4 3.5 9 4.2 13.2 0.6 4.3 0.4 8.2 0.1 11.7q-0.4 2.5-0.7 4.7c-0.4 1.5-0.6 2.8-0.9 4-0.6 2.4-1.2 4.2-1.6 5.5q-0.4 1.2-0.7 1.9z"/><path class="i" d="m145.8 47.7q0.6-0.4 1.7-1c1.2-0.5 2.9-1.5 5.3-2.2 2.3-0.7 5.3-1.5 8.9-1.3 3.5 0.1 7.8 1.4 11.2 4.6q0.6 0.6 1.2 1.2 0.5 0.7 1.1 1.4 0.5 0.7 1 1.5c0.3 0.5 0.6 1 0.9 1.5q0.4 0.9 0.8 1.7c0.1 0.3 0.2 0.5 0.4 0.9l0.3 0.8c0.4 1.1 0.8 2.2 1.2 3.3 1.5 4.9 2.4 9.9 3.2 15.1 0.8 5.1 1.9 10.2 3.8 14.9 1.9 4.8 4.7 9.2 8.4 13 0.9 1 1.8 1.9 2.8 2.8 0.9 0.9 1.9 1.8 3 2.6 1 0.9 2 1.7 3.1 2.5q1.6 1.2 3.2 2.3l1.7 1.2 1.7 1.3c0.5 0.3 1.2 1 1.8 1.6 0.6 0.5 1.1 1.1 1.6 1.8 1.9 2.4 3.1 5.5 3.5 8.4 0.9 5.9-0.5 11.2-1.9 15.8-1.4 4.7-3.1 8.9-4.6 12.8-1.4 3.9-2.7 7.4-3.6 10.6-0.9 3.2-1.3 6.1-1.3 8.5 0 2.3 0.5 4.2 1 5.4q0.5 1.2 0.8 1.8-0.4-0.6-1.1-1.7c-0.6-1.1-1.5-2.9-1.8-5.4-0.4-2.5-0.3-5.6 0.2-9 0.5-3.5 1.5-7.2 2.7-11.3 1.1-4 2.5-8.3 3.6-12.8 1-4.5 1.8-9.4 1-13.8-0.4-2.3-1.3-4.3-2.7-6-1.4-1.6-3.2-2.8-5.7-4.5q-1.8-1.2-3.5-2.4c-1.2-0.9-2.2-1.8-3.4-2.7-1.1-0.9-2.2-1.8-3.3-2.8-1-1-2.1-2-3.1-3.1-4-4.3-7.2-9.4-9.3-14.8-2.2-5.5-2.9-11.1-3.6-16.3-0.7-5.1-1.3-10.1-2.3-14.4-0.3-1.2-0.7-2.3-1-3.4l-0.3-0.9-0.2-0.6q-0.3-0.8-0.6-1.5c-0.2-0.4-0.4-1-0.6-1.4q-0.4-0.6-0.8-1.3-0.4-0.6-0.8-1.2-0.4-0.6-0.9-1.1c-2.5-2.8-5.8-4.3-9-4.7-3.2-0.5-6.1-0.2-8.4 0.2-2.4 0.4-4.2 1-5.5 1.4q-1.2 0.4-1.8 0.7z"/><path class="i" d="m271.4 165.1c-2.1 5.6-7.3 9.1-13.6 11.3q0.5-5.3 0.3-9.3c-0.6 3.4-1.6 6.8-2.7 10.1-2.8 0.8-5.9 1.4-8.9 1.8q3.5-12.3 1.6-23.9c-1.3 10.7-3.6 18.7-5.8 24.3q-11.7 1-22.2-0.3c-13.4-16 19.3-52.7-5.4-65.3-36.4-18.7-28-37.4-38-58q-10-20.7-26-6.7c-3.3-39.3 19.4-56.7 52.7-36 33.3 20.7 9.3 67.3 44 86.7 34.7 19.3 31.3 46 24 65.3z"/></svg>