<svg version="1.2" xmlns="http://www.w3.org/2000/svg" viewBox="0 0 310 350" width="310" height="350"><style>.a{fill:#76413b}.b{fill:#965450}.c{fill:#ffac9d}.d{fill:#cc887f}.e{fill:#5d8584}.f{fill:#78a8a5}.g{fill:#352c38}.h{fill:#fff}</style><path class="a" d="m185.7 199.4c59.4 70-56 78-72.6 48.7-16.7-29.3 14-48.7 14-48.7 0 0 9.6-57.8 58.6 0z"/><path class="a" d="m239.3 124.8c0 0-13.3 16-10.7 32 3.9 23-31.3 53.3-67.3 43.3-36-10 2.7-77.3 2.7-77.3z"/><path class="a" d="m146.4 122.8c0 0 38.7 67.3 2.7 77.3-36 10-71.2-20.3-67.4-43.3 2.7-16-10.6-32-10.6-32z"/><path class="b" d="m146.1 174c1.5-22.7 17.9-51.2 17.9-51.2l75.3 2c0 0-9.3 11.2-10.8 24.2-4.7 6.2-10.1 11.7-18 15.8-14.8 7.6-31.4 10.6-48 10.3-5.4 0-10.9-0.4-16.4-1.1z"/><path class="b" d="m71.1 124.8l75.3-2c0 0 16.9 29.5 17.9 52.3q-0.9 0-1.8 0c-27.2-0.3-55.9-8.1-80.5-21.1 0.9-15-10.9-29.2-10.9-29.2z"/><path class="c" d="m305.9 350h-148.2-5.4-148.2c-10.8-103.3 93.5-107.9 110.4-117.2 17-9.3 12.4-54 12.4-54l25.4 1.7v-1.7l2.7 0.8 2.7-0.8v1.7l25.4-1.7c0 0-4.6 44.7 12.4 54 16.9 9.3 121.2 13.9 110.4 117.2z"/><path class="d" d="m126.9 178.8l25.4 1.7v-1.7l2.7 0.8 2.7-0.8v1.7l25.4-1.7c0 0-1.8 17.7 1.1 33.1q-30.4 4.8-60.9 9.4c6.3-16.5 3.6-42.5 3.6-42.5z"/><path class="e" d="m309 350h-150.9-5.5-150.9c-7.6-73.5 43.8-98 79.1-109.2 15.8 14.3 39.7 24 66.8 25.5l7.1 48.2 13.5-48.6c25-2.4 46.9-11.7 61.8-25.1 35.2 11.2 86.7 35.7 79 109.2z"/><path class="f" d="m62.1 247.8c6.3-2.8 12.7-5.1 18.7-7 15.8 14.3 39.7 24 66.8 25.5l1.8 12.4c-40.8-1.4-74.8-13.9-87.3-30.9z"/><path class="f" d="m164.7 278.7l3.5-12.8c25-2.4 46.9-11.7 61.8-25.1 6.6 2.1 13.7 4.7 20.7 8-13 16.4-46.2 28.4-86 29.9z"/><path class="f" d="m157.3 320.6c3 0 5.6 2.5 5.6 5.6 0 3.1-2.6 5.6-5.6 5.6-3.1 0-5.6-2.5-5.6-5.6 0-3.1 2.5-5.6 5.6-5.6z"/><path class="d" d="m96.5 142.4c-8.8 2.6-18.3-6.2-20.4-22.5-2.1-16.1 10.1-18 11.3-18.1 1.1-0.4 12.9-4 17.9 11.5 5.1 15.6 0.3 27.6-8.8 29.1z"/><path class="d" d="m205.1 113.3c5-15.5 16.9-11.9 18-11.5 1.1 0.1 13.4 2 11.3 18.1-2.2 16.3-11.6 25.1-20.4 22.5-9.1-1.5-13.9-13.5-8.9-29.1z"/><path class="c" d="m93.2 89.9c6.2-68 57.9-64.2 62.7-63.7 4.9-0.5 56.6-4.3 62.8 63.7 6.2 68.3-24.2 113-62.8 110.5-38.5 2.5-68.9-42.2-62.7-110.5z"/><path class="b" d="m97.1 101.4c2.6 46 24 75.7 25.6 58.4 2.5-25.9 17.7-15.7 48.4-14.4 30.6 1.4 7 24 23 23.4 16-0.7 20.3-71.4 20.3-71.4l6.7 0.7c4.6 70-28 114-80.7 104-52.7-10-49.3-99.3-49.3-99.3 0 0 3.3-47.4 6-1.4z"/><path class="a" d="m92.1 125.8c-1.4-13.3-1-23-1-23 0 0 3.3-47.4 6-1.4 0.4 7.3 1.3 14.2 2.5 20.6q-3.8 1.9-7.5 3.8z"/><path class="a" d="m212.2 119.3c1.6-12.2 2.2-21.9 2.2-21.9l6.7 0.7q0.8 12.9 0 24.5-4.4-1.7-8.9-3.3z"/><path class="d" d="m164.9 97.8c0.8 3.1 1.5 6.3 2.1 9.4q0.9 4.8 1.5 9.5c0.3 1.6 0.4 3.2 0.6 4.8q0.3 2.3 0.5 4.7 0.5 4.8 0.8 9.6l0.1 0.9-0.7 0.3q-3 1.9-6.2 3.7c-2.1 1.1-4.2 2.3-6.3 3.3 1.7-1.6 3.6-3.2 5.4-4.7q2.8-2.3 5.6-4.5l-0.5 1.3q-0.8-4.7-1.4-9.5-0.3-2.4-0.5-4.8c-0.2-1.6-0.4-3.1-0.5-4.7q-0.4-4.8-0.6-9.6c-0.1-3.2-0.1-6.4 0.1-9.7z"/><path class="g" d="m204.7 92.8c0 0-0.6-0.3-1.5-0.8q-0.7-0.4-1.6-0.9-1-0.5-2.1-1.1c-0.8-0.4-1.6-0.8-2.5-1.2q-0.7-0.3-1.3-0.6-0.7-0.2-1.4-0.5c-1-0.4-2-0.5-2.9-0.9-1-0.1-2-0.5-3-0.4l-1.4-0.1q-0.8 0-1.5 0.1c-1-0.1-1.9 0.3-2.8 0.4-1 0.2-1.8 0.6-2.7 0.8l-0.7 0.2-0.6 0.3q-0.6 0.3-1.2 0.6c-0.7 0.4-1.5 0.6-2.1 1-0.6 0.4-1.1 0.7-1.6 1-0.9 0.5-1.5 0.7-1.5 0.7 0 0 0.2-0.5 0.7-1.5 0.3-0.5 0.6-1 1-1.7 0.4-0.7 1-1.3 1.7-2 0.7-0.6 1.3-1.5 2.3-2.1 0.9-0.6 1.9-1.4 3.1-1.8q0.8-0.4 1.8-0.7c0.6-0.3 1.3-0.4 1.9-0.4q1-0.2 2.1-0.3 1 0 2 0.1c1.4 0 2.7 0.5 4 0.8q0.9 0.3 1.8 0.7 0.9 0.4 1.6 0.9 0.8 0.5 1.5 0.9 0.7 0.6 1.4 1.1c0.8 0.7 1.5 1.5 2.2 2.1 1.2 1.4 2.1 2.8 2.6 3.7 0.5 1 0.7 1.6 0.7 1.6z"/><path class="g" d="m140.3 92.8c0 0-0.5-0.3-1.5-0.8q-0.7-0.4-1.6-0.9-1-0.5-2.1-1.1c-0.8-0.4-1.6-0.8-2.5-1.2q-0.6-0.3-1.3-0.6-0.7-0.2-1.4-0.5c-0.9-0.4-1.9-0.5-2.9-0.9-1-0.1-2-0.5-2.9-0.4l-1.5-0.1q-0.7 0-1.5 0.1c-1-0.1-1.9 0.3-2.8 0.4-1 0.2-1.8 0.6-2.7 0.8l-0.7 0.2-0.6 0.3q-0.6 0.3-1.1 0.6c-0.8 0.4-1.6 0.6-2.1 1-0.6 0.4-1.2 0.7-1.7 1-0.9 0.5-1.5 0.7-1.5 0.7 0 0 0.2-0.5 0.8-1.5 0.2-0.5 0.5-1 1-1.7 0.3-0.7 0.9-1.3 1.6-2 0.7-0.6 1.3-1.5 2.3-2.1 1-0.6 1.9-1.4 3.1-1.8q0.9-0.4 1.8-0.7c0.6-0.3 1.3-0.4 1.9-0.4q1.1-0.2 2.1-0.3 1 0 2 0.1c1.4 0 2.7 0.5 4 0.8q0.9 0.3 1.8 0.7 0.9 0.4 1.6 0.9 0.8 0.5 1.6 0.9 0.6 0.6 1.3 1.1c0.9 0.7 1.5 1.5 2.2 2.1 1.2 1.4 2.1 2.8 2.6 3.7 0.5 1 0.7 1.6 0.7 1.6z"/><path class="g" d="m138.3 117.4c0 0-0.2-0.5-0.5-1.5-0.3-0.9-0.8-2.2-1.6-3.6-0.7-1.4-1.8-2.9-3.3-4.1-0.7-0.5-1.6-1-2.5-1.3-0.5-0.1-0.9-0.3-1.4-0.3-0.5-0.1-1-0.2-1.5-0.1-0.5 0-1.1-0.1-1.5 0-0.5 0.1-1.1 0.1-1.6 0.3-0.8 0.2-1.7 0.6-2.4 1.1-0.7 0.6-1.3 1.3-1.8 2q-0.7 1.1-1.2 2.2c-0.6 1.5-0.9 2.8-1 3.8-0.2 1-0.3 1.5-0.3 1.5 0 0-0.1-0.5-0.2-1.5-0.1-1-0.2-2.5 0.2-4.2 0.2-0.9 0.5-1.8 0.9-2.7 0.5-1 1.1-2 2.1-2.7q1.3-1.2 3.3-1.8c0.6-0.2 1.1-0.2 1.6-0.3 0.8-0.1 1.3-0.1 1.9-0.1 0.6 0 1.3 0.1 1.9 0.2 0.6 0 1.2 0.2 1.8 0.5 0.6 0.1 1.1 0.4 1.6 0.8 0.5 0.2 1 0.6 1.4 1 1.8 1.6 2.8 3.5 3.3 5.2 0.6 1.6 0.7 3.1 0.8 4.1 0 1 0 1.5 0 1.5z"/><path class="g" d="m196.1 116.5c0 0-0.1-0.6-0.4-1.5-0.3-0.9-0.8-2.2-1.6-3.6-0.8-1.4-1.8-3-3.4-4.1-0.7-0.6-1.5-1-2.5-1.3-0.4-0.2-0.9-0.3-1.4-0.3-0.5-0.1-1-0.2-1.5-0.2-0.5 0.1-1.1 0-1.4 0.1-0.5 0.1-1.2 0.1-1.6 0.3-0.8 0.2-1.7 0.5-2.4 1.1-0.8 0.5-1.4 1.2-1.9 1.9q-0.7 1.1-1.1 2.3c-0.6 1.4-0.9 2.8-1.1 3.8-0.2 0.9-0.2 1.5-0.2 1.5 0 0-0.2-0.6-0.3-1.6-0.1-0.9-0.1-2.4 0.2-4.1 0.2-0.9 0.5-1.8 1-2.8 0.5-0.9 1.1-1.9 2-2.6q1.4-1.2 3.3-1.8c0.6-0.2 1.1-0.2 1.7-0.3 0.7-0.2 1.2-0.1 1.9-0.1 0.6-0.1 1.2 0 1.8 0.1 0.6 0.1 1.2 0.3 1.8 0.5 0.6 0.2 1.1 0.5 1.7 0.8 0.5 0.3 0.9 0.7 1.4 1.1 1.7 1.5 2.7 3.5 3.3 5.1 0.5 1.7 0.7 3.1 0.7 4.1 0.1 1 0 1.6 0 1.6z"/><path class="h" d="m182.3 156.3c-12.3 11.9-33.1 11.3-48.9 0.6"/><path class="a" d="m156.9 36.1c0 0-37.4-6.7-43.4 16.7-6 23.3 2.7 54.6-24.6 50 0 0-19.8 4-7.2 35.3 0 0-37.5-36-15.5-62 18-21.2 10.7-67.3 54.7-74.7 44-7.3 36 26 36 34.7z"/><path class="b" d="m156.9 36.1c0 0-37.4-6.7-43.4 16.7-6 23.3 2.7 54.6-24.6 50 0 0-19.8 4-7.2 35.3 0 0-37.5-36-15.5-62 18-21.2 10.7-67.3 54.7-74.7 44-7.3 36 26 36 34.7z"/><path class="b" d="m189.5 1.4c44 7.4 36.7 53.5 54.6 74.7 22 26-15.5 62-15.5 62 12.7-31.3-7.1-35.3-7.1-35.3-27.4 4.6-18.7-26.7-24.7-50-6-23.4-43.3-16.7-43.3-16.7 0-8.7-8-42 36-34.7z"/><path class="b" d="m152.9 30.6c2.6-0.1 5 0.1 7.6 0.2q3.7 0.3 7.5 1c4.9 0.8 9.9 2.2 14.6 4.4 4.6 2.3 9.2 5.5 12.1 10.2 1.5 2.3 2.5 4.9 3 7.5 0.6 2.6 0.7 5.1 0.9 7.6 0.3 5 0.1 9.9-0.1 14.8-0.2 4.9-0.4 9.7-0.1 14.4 0.2 2.4 0.5 4.7 1.2 6.9 0.6 2.2 1.7 4.2 3.3 5.7 1.5 1.6 3.6 2.6 5.9 3.1 2.3 0.5 4.7 0.6 7.1 0.5h0.1c1.5 0.2 2.9 0.6 4.3 1.2 1.4 0.5 2.7 1.2 3.9 2.2 1.1 0.9 2.1 2.1 2.7 3.4 0.7 1.4 0.9 2.9 0.8 4.3-0.1-1.4-0.4-2.9-1.1-4.1-0.6-1.3-1.7-2.3-2.8-3.1-1.2-0.8-2.5-1.3-3.8-1.7-1.4-0.5-2.8-0.7-4.2-0.8h0.2c-2.5 0.2-5 0.3-7.6-0.1-2.5-0.4-5-1.4-7.1-3.2-2-1.7-3.4-4.1-4.3-6.5-0.9-2.5-1.3-5-1.6-7.5-0.6-5-0.6-9.9-0.6-14.8-0.1-4.9-0.1-9.7-0.5-14.4-0.2-2.3-0.5-4.8-1-6.9-0.5-2.1-1.4-4.1-2.6-5.9-2.4-3.6-6.2-6.2-10.3-8.1-4.1-1.9-8.7-3-13.3-3.8q-3.5-0.6-7-0.9c-2.4-0.1-4.8-0.2-7.1-0.2z"/></svg>