<svg version="1.2" xmlns="http://www.w3.org/2000/svg" viewBox="0 0 302 369" width="302" height="369"><style>.a{fill:#965450}.b{fill:#76413b}.c{fill:#fdedee}.d{opacity:.1;fill:#352c38}.e{fill:#6f96bd}.f{fill:#88bbe5}.g{fill:#fff}.h{fill:#352c38}.i{fill:#fddec0}.j{fill:#d3b9a3}</style><path class="a" d="m297.9 369h-144.2-5.4-144.2c-10.8-103.3 89.5-107.9 106.4-117.2 17-9.3 12.4-54 12.4-54l25.4 1.7v-1.7l2.7 0.8 2.7-0.8v1.7l25.4-1.7c0 0-4.6 44.7 12.4 54 16.9 9.3 117.2 13.9 106.4 117.2z"/><path class="b" d="m122.9 197.8l25.4 1.7v-1.7l2.7 0.8 2.7-0.8v1.7l25.4-1.7c0 0-1.8 17.7 1.1 33.1q-30.4 4.8-60.9 9.4c6.3-16.5 3.6-42.5 3.6-42.5z"/><path class="c" d="m300.5 369h-146.7-5.6-146.7c-8.7-82.8 52.8-103.3 87.7-112.9 9.1 23.7 33.3 40.7 61.8 40.7 28.5 0 52.7-17 61.8-40.7 34.9 9.6 96.4 30.1 87.7 112.9z"/><path class="d" d="m300.5 369h-268.1c40.2-9.9 80.1-20.8 119.5-33.3 42.1-13.4 87.3-22.9 124.7-47.2 16.7 16.8 28 41.8 23.9 80.5z"/><path class="e" d="m300.5 369h-81.8v-111.3c35.5 10.4 90 33 81.8 111.3z"/><path class="e" d="m82.7 369h-81.2c-8.2-77.9 45.7-100.7 81.2-111.1z"/><path class="f" d="m83.7 257.9v111.1c0 0-41-69.9-39-93.9 2-24 35-25.4 39-17.2z"/><path class="f" d="m255.6 275.1c2 24-39 93.9-39 93.9v-111.1c4-8.2 37-6.8 39 17.2z"/><path class="b" d="m92.5 161.4c-8.8 2.6-18.3-6.2-20.4-22.5-2.1-16.1 10.1-18 11.3-18.1 1.1-0.4 12.9-4 17.9 11.5 5.1 15.6 0.3 27.6-8.8 29.1z"/><path class="b" d="m201.1 132.3c5-15.5 16.9-11.9 18-11.5 1.1 0.1 13.4 2 11.3 18.1-2.2 16.3-11.6 25.1-20.4 22.5-9.1-1.5-13.9-13.5-8.9-29.1z"/><path class="a" d="m89.2 108.9c6.2-68 57.9-64.2 62.7-63.7 4.9-0.5 56.6-4.3 62.8 63.7 6.2 68.3-24.2 113-62.8 110.5-38.5 2.5-68.9-42.2-62.7-110.5z"/><path class="b" d="m160.9 116.8c0.8 3.1 1.5 6.3 2.1 9.4q0.9 4.8 1.5 9.5c0.3 1.6 0.4 3.2 0.6 4.8q0.3 2.3 0.5 4.7 0.5 4.8 0.8 9.6l0.1 0.9-0.7 0.3q-3 1.9-6.2 3.7c-2.1 1.1-4.2 2.3-6.3 3.3 1.7-1.6 3.6-3.2 5.4-4.7q2.8-2.3 5.6-4.5l-0.5 1.3q-0.8-4.7-1.4-9.5-0.3-2.4-0.5-4.8c-0.2-1.6-0.4-3.1-0.5-4.7q-0.4-4.8-0.6-9.6c-0.1-3.2-0.1-6.4 0.1-9.7z"/><path class="g" d="m178.3 175.3c-12.3 11.9-33.1 11.3-48.9 0.6"/><path class="h" d="m200.7 111.8c0 0-0.6-0.3-1.5-0.8q-0.7-0.4-1.6-0.9-1-0.5-2.1-1.1c-0.8-0.4-1.6-0.8-2.5-1.2q-0.7-0.3-1.3-0.6-0.7-0.2-1.4-0.5c-1-0.4-2-0.5-2.9-0.9-1-0.1-2-0.5-3-0.4l-1.4-0.1q-0.8 0-1.5 0.1c-1-0.1-1.9 0.3-2.8 0.4-1 0.2-1.8 0.6-2.7 0.8l-0.7 0.2-0.6 0.3q-0.6 0.3-1.2 0.6c-0.7 0.4-1.5 0.6-2.1 1-0.6 0.4-1.1 0.7-1.6 1-0.9 0.5-1.5 0.7-1.5 0.7 0 0 0.2-0.5 0.7-1.5 0.3-0.5 0.6-1 1-1.7 0.4-0.7 1-1.3 1.7-2 0.7-0.6 1.3-1.5 2.3-2.1 0.9-0.6 1.9-1.4 3.1-1.8q0.8-0.4 1.8-0.7c0.6-0.3 1.3-0.4 1.9-0.4q1-0.2 2.1-0.3 1 0 2 0.1c1.4 0 2.7 0.5 4 0.8q0.9 0.3 1.8 0.7 0.9 0.4 1.6 0.9 0.8 0.5 1.5 0.9 0.7 0.6 1.4 1.1c0.8 0.7 1.5 1.5 2.2 2.1 1.2 1.4 2.1 2.8 2.6 3.7 0.5 1 0.7 1.6 0.7 1.6z"/><path class="h" d="m136.3 111.8c0 0-0.5-0.3-1.5-0.8q-0.7-0.4-1.6-0.9-1-0.5-2.1-1.1c-0.8-0.4-1.6-0.8-2.5-1.2q-0.6-0.3-1.3-0.6-0.7-0.2-1.4-0.5c-0.9-0.4-1.9-0.5-2.9-0.9-1-0.1-2-0.5-2.9-0.4l-1.5-0.1q-0.7 0-1.5 0.1c-1-0.1-1.9 0.3-2.8 0.4-1 0.2-1.8 0.6-2.7 0.8l-0.7 0.2-0.6 0.3q-0.6 0.3-1.1 0.6c-0.8 0.4-1.6 0.6-2.1 1-0.6 0.4-1.2 0.7-1.7 1-0.9 0.5-1.5 0.7-1.5 0.7 0 0 0.2-0.5 0.8-1.5 0.2-0.5 0.5-1 1-1.7 0.3-0.7 0.9-1.3 1.6-2 0.7-0.6 1.3-1.5 2.3-2.1 1-0.6 1.9-1.4 3.1-1.8q0.9-0.4 1.8-0.7c0.6-0.3 1.3-0.4 1.9-0.4q1.1-0.2 2.1-0.3 1 0 2 0.1c1.4 0 2.7 0.5 4 0.8q0.9 0.3 1.8 0.7 0.9 0.4 1.6 0.9 0.8 0.5 1.6 0.9 0.6 0.6 1.3 1.1c0.9 0.7 1.5 1.5 2.2 2.1 1.2 1.4 2.1 2.8 2.6 3.7 0.5 1 0.7 1.6 0.7 1.6z"/><path class="h" d="m134.3 136.4c0 0-0.2-0.5-0.5-1.5-0.3-0.9-0.8-2.2-1.6-3.6-0.7-1.4-1.8-2.9-3.3-4.1-0.7-0.5-1.6-1-2.5-1.3-0.5-0.1-0.9-0.3-1.4-0.3-0.5-0.1-1-0.2-1.5-0.1-0.5 0-1.1-0.1-1.5 0-0.5 0.1-1.1 0.1-1.6 0.3-0.8 0.2-1.7 0.6-2.4 1.1-0.7 0.6-1.3 1.3-1.8 2q-0.7 1.1-1.2 2.2c-0.6 1.5-0.9 2.8-1 3.8-0.2 1-0.3 1.5-0.3 1.5 0 0-0.1-0.5-0.2-1.5-0.1-1-0.2-2.5 0.2-4.2 0.2-0.9 0.5-1.8 0.9-2.7 0.5-1 1.1-2 2.1-2.7q1.3-1.2 3.3-1.8c0.6-0.2 1.1-0.2 1.6-0.3 0.8-0.1 1.3-0.1 1.9-0.1 0.6 0 1.3 0.1 1.9 0.2 0.6 0 1.2 0.2 1.8 0.5 0.6 0.1 1.1 0.4 1.6 0.8 0.5 0.2 1 0.6 1.4 1 1.8 1.6 2.8 3.5 3.3 5.2 0.6 1.6 0.7 3.1 0.8 4.1 0 1 0 1.5 0 1.5z"/><path class="h" d="m192.1 135.5c0 0-0.1-0.6-0.4-1.5-0.3-0.9-0.8-2.2-1.6-3.6-0.8-1.4-1.8-3-3.4-4.1-0.7-0.6-1.5-1-2.5-1.3-0.4-0.2-0.9-0.3-1.4-0.3-0.5-0.1-1-0.2-1.5-0.2-0.5 0.1-1.1 0-1.4 0.1-0.5 0.1-1.2 0.1-1.6 0.3-0.8 0.2-1.7 0.5-2.4 1.1-0.8 0.5-1.4 1.2-1.9 1.9q-0.7 1.1-1.1 2.3c-0.6 1.4-0.9 2.8-1.1 3.8-0.2 0.9-0.2 1.5-0.2 1.5 0 0-0.2-0.6-0.3-1.6-0.1-0.9-0.1-2.4 0.2-4.1 0.2-0.9 0.5-1.8 1-2.8 0.5-0.9 1.1-1.9 2-2.6q1.4-1.2 3.3-1.8c0.6-0.2 1.1-0.2 1.7-0.3 0.7-0.2 1.2-0.1 1.9-0.1 0.6-0.1 1.2 0 1.8 0.1 0.6 0.1 1.2 0.3 1.8 0.5 0.6 0.2 1.1 0.5 1.7 0.8 0.5 0.3 0.9 0.7 1.4 1.1 1.7 1.5 2.7 3.5 3.3 5.1 0.5 1.7 0.7 3.1 0.7 4.1 0.1 1 0 1.6 0 1.6z"/><path class="i" d="m212.7 149.1h-5.3l2-41.3c-11-2.2-18.3-29.5-20.6-39.3-12.4 4.5-37.2 12.4-44.1 5.9-6.7-6.2-0.6-10.4 3.4-12.2-6.5 2.4-24.1 8.4-41.6 8.1-1.6 10.9-6.3 35.4-16.7 37.5l2 41.3h-5.3c0 0-7.6-60.1-5.7-85.6-1.9-1.3-3.7-2.7-5.4-4.4-20.6-20.6 25.1-27.9 38.5-29.6-9.6 0.9-35.1 2.2-37.8-9.7-3.4-14.7 60 2 60 2 0 0-35.4-12-34-19.4 1.2-6.8 97.2-0.2 99.5 35.7 4 0.9 12.3 4.4 15.8 18.3 4.7 18.7-4.7 92.7-4.7 92.7z"/><path class="j" d="m212.7 149.1h-5.3l2-41.3c-11-2.2-18.3-29.5-20.6-39.3-10.7 3.9-30.4 10.2-40.2 7.8 22.7-10 40.5-30.7 43.5-55.1 5.5 4.7 9.1 10.3 9.5 16.9 4 0.9 12.3 4.4 15.8 18.3 4.7 18.7-4.7 92.7-4.7 92.7z"/></svg>