<svg version="1.2" xmlns="http://www.w3.org/2000/svg" viewBox="0 0 298 359" width="298" height="359"><style>.a{fill:#ffac9d}.b{fill:#cc887f}.c{fill:#d68950}.d{fill:#ffa65b}.e{fill:none;stroke:#765e69;stroke-width:3.7}.f{fill:none;stroke:#765e69;stroke-width:2}.g{fill:#d35450}.h{fill:#fc6a5a}.i{fill:#fff}.j{fill:#352c38}.k{fill:none;stroke:#765e69;stroke-width:2.9}.l{fill:#a9c7db;stroke:#765e69;stroke-width:2.9}</style><path class="a" d="m296.9 359h-144.2-5.4-144.2c-10.8-103.3 89.5-107.9 106.4-117.2 17-9.3 12.4-54 12.4-54l25.4 1.7v-1.7l2.7 0.8 2.7-0.8v1.7l25.4-1.7c0 0-4.6 44.7 12.4 54 16.9 9.3 117.2 13.9 106.4 117.2z"/><path class="b" d="m121.9 187.8l25.4 1.7v-1.7l2.7 0.8 2.7-0.8v1.7l25.4-1.7c0 0-1.8 17.7 1.1 33.1q-30.4 4.8-60.9 9.4c6.3-16.5 3.6-42.5 3.6-42.5z"/><path class="c" d="m296.9 359h-145.2-5.4-145.2c-10.8-104 86.1-108.7 103.2-118 8.9-4.8 11.8-19.4 12.7-32.2 8.2 3.9 22.7 6.3 34.2 6.3 9.6 0 24.5-1.6 32-4.5 0.9 12.4 4.1 25.8 12.5 30.4 17.1 9.3 112 14 101.2 118z"/><path class="d" d="m91.8 245.5c5.9-1.7 10.6-3 13.3-4.5 8.9-4.8 11.9-19.4 12.7-32.2 8.2 3.9 22.8 6.3 34.3 6.3 9.5 0 24.5-1.6 31.9-4.5 1 12.4 4.1 25.8 12.6 30.4 2.5 1.4 6.6 2.6 11.8 4.1-14.3 12.3-35.2 20-58.5 20-23.1 0-43.8-7.6-58.1-19.6z"/><path class="e" d="m41.7 346.7l16.5-15.6 15.6 15.6"/><path class="e" d="m227.3 346.1l18.8-15 15.6 15.6"/><path class="e" d="m196.3 346.2l17.8-15.1 15.5 15.6"/><path class="e" d="m166.4 346.7l16.5-15.6 15.6 15.6"/><path class="e" d="m133.6 346.4l18.1-15.3 16.9 15.2"/><path class="e" d="m104.1 346.7l16.5-15.6 15.5 15.6"/><path class="e" d="m71.6 346.4l17.8-15.3 16.6 15"/><path class="f" d="m41.7 331.4l16.5-15.6 15.6 15.6"/><path class="f" d="m227.3 330.7l18.8-14.9 15.6 15.6"/><path class="f" d="m196.3 330.8l17.8-15 15.5 15.6"/><path class="f" d="m166.4 331.4l16.5-15.6 15.6 15.6"/><path class="f" d="m133.6 331l18.1-15.2 16.9 15.1"/><path class="f" d="m104.1 331.4l16.5-15.6 15.5 15.6"/><path class="f" d="m71.6 331l17.8-15.2 16.6 14.9"/><path class="d" d="m43.9 359h-42.8c-5.2-50.4 14.8-77.5 38.8-93.1 4.3 15.1 6.8 34.5 6.8 55.7 0 13.4-1 26.1-2.8 37.4z"/><path class="d" d="m296.9 359h-43.3c-1.9-11.3-2.9-24-2.9-37.4 0-21.6 2.7-41.3 7.1-56.5 24 15.5 44.4 42.6 39.1 93.9z"/><path class="b" d="m91.5 151.4c-8.8 2.6-18.3-6.2-20.4-22.5-2.1-16.1 10.1-18 11.3-18.1 1.1-0.4 12.9-4 17.9 11.5 5.1 15.6 0.3 27.6-8.8 29.1z"/><path class="b" d="m200.1 122.3c5-15.5 16.9-11.9 18-11.5 1.1 0.1 13.4 2 11.3 18.1-2.2 16.3-11.6 25.1-20.4 22.5-9.1-1.5-13.9-13.5-8.9-29.1z"/><path class="a" d="m88.2 98.9c6.2-68 57.9-64.2 62.7-63.7 4.9-0.5 56.6-4.3 62.8 63.7 6.2 68.3-24.2 113-62.8 110.5-38.5 2.5-68.9-42.2-62.7-110.5z"/><path class="g" d="m107.7 62.1c-17 12-15 65-15 65l-5-1-6-35c-10-31 4-40 4-40 0 0 39-1 22 11z"/><path class="h" d="m192.7 56.1c0 0-67 39-103 8-36-31 2-47 17-45 0 0-5-17 15-19 20-2 16 18 46 18 30 0 45 2 42 27 0 0 15-9 20 8 5 17-14 73-14 73l-2 9h-5v-48c0 0-19 6-16-31z"/><path class="g" d="m215.7 126.1l-2 9h-5v-48c0 0-19 6-16-31 0 0-3.8 2.2-10.1 5.2 8.3-12.2 13-26.1 15-40.5 9.6 3.2 13.8 9.9 12.1 24.3 0 0 15-9 20 8 5 17-14 73-14 73z"/><path class="b" d="m159.9 106.8c0.8 3.1 1.5 6.3 2.1 9.4q0.9 4.8 1.5 9.5c0.3 1.6 0.4 3.2 0.6 4.8q0.3 2.3 0.5 4.7 0.5 4.8 0.8 9.6l0.1 0.9-0.7 0.3q-3 1.9-6.2 3.7c-2.1 1.1-4.2 2.3-6.3 3.3 1.7-1.6 3.6-3.2 5.4-4.7q2.8-2.3 5.6-4.5l-0.5 1.3q-0.8-4.7-1.4-9.5-0.3-2.4-0.5-4.8c-0.2-1.6-0.4-3.1-0.5-4.7q-0.4-4.8-0.6-9.6c-0.1-3.2-0.1-6.4 0.1-9.7z"/><path class="i" d="m177.3 165.3c-12.3 11.9-33.1 11.3-48.9 0.6"/><path class="j" d="m199.7 101.8c0 0-0.6-0.3-1.5-0.8q-0.7-0.4-1.6-0.9-1-0.5-2.1-1.1c-0.8-0.4-1.6-0.8-2.5-1.2q-0.7-0.3-1.3-0.6-0.7-0.2-1.4-0.5c-1-0.4-2-0.5-2.9-0.9-1-0.1-2-0.5-3-0.4l-1.4-0.1q-0.8 0-1.5 0.1c-1-0.1-1.9 0.3-2.8 0.4-1 0.2-1.8 0.6-2.7 0.8l-0.7 0.2-0.6 0.3q-0.6 0.3-1.2 0.6c-0.7 0.4-1.5 0.6-2.1 1-0.6 0.4-1.1 0.7-1.6 1-0.9 0.5-1.5 0.7-1.5 0.7 0 0 0.2-0.5 0.7-1.5 0.3-0.5 0.6-1 1-1.7 0.4-0.7 1-1.3 1.7-2 0.7-0.6 1.3-1.5 2.3-2.1 0.9-0.6 1.9-1.4 3.1-1.8q0.8-0.4 1.8-0.7c0.6-0.3 1.3-0.4 1.9-0.4q1-0.2 2.1-0.3 1 0 2 0.1c1.4 0 2.7 0.5 4 0.8q0.9 0.3 1.8 0.7 0.9 0.4 1.6 0.9 0.8 0.5 1.5 0.9 0.7 0.6 1.4 1.1c0.8 0.7 1.5 1.5 2.2 2.1 1.2 1.4 2.1 2.8 2.6 3.7 0.5 1 0.7 1.6 0.7 1.6z"/><path class="j" d="m135.3 101.8c0 0-0.5-0.3-1.5-0.8q-0.7-0.4-1.6-0.9-1-0.5-2.1-1.1c-0.8-0.4-1.6-0.8-2.5-1.2q-0.6-0.3-1.3-0.6-0.7-0.2-1.4-0.5c-0.9-0.4-1.9-0.5-2.9-0.9-1-0.1-2-0.5-2.9-0.4l-1.5-0.1q-0.7 0-1.5 0.1c-1-0.1-1.9 0.3-2.8 0.4-1 0.2-1.8 0.6-2.7 0.8l-0.7 0.2-0.6 0.3q-0.6 0.3-1.1 0.6c-0.8 0.4-1.6 0.6-2.1 1-0.6 0.4-1.2 0.7-1.7 1-0.9 0.5-1.5 0.7-1.5 0.7 0 0 0.2-0.5 0.8-1.5 0.2-0.5 0.5-1 1-1.7 0.3-0.7 0.9-1.3 1.6-2 0.7-0.6 1.3-1.5 2.3-2.1 1-0.6 1.9-1.4 3.1-1.8q0.9-0.4 1.8-0.7c0.6-0.3 1.3-0.4 1.9-0.4q1.1-0.2 2.1-0.3 1 0 2 0.1c1.4 0 2.7 0.5 4 0.8q0.9 0.3 1.8 0.7 0.9 0.4 1.6 0.9 0.8 0.5 1.6 0.9 0.6 0.6 1.3 1.1c0.9 0.7 1.5 1.5 2.2 2.1 1.2 1.4 2.1 2.8 2.6 3.7 0.5 1 0.7 1.6 0.7 1.6z"/><path class="k" d="m223.3 111l-13.6 12.7h-45c-9.4-15.8-20.7 0-20.7 0l-43.7-1.4-17.4-13.3"/><path class="l" d="m121.5 101.2c12.4 0 22.5 10.1 22.5 22.5 0 12.5-10.1 22.5-22.5 22.5-12.4 0-22.5-10-22.5-22.5 0-12.4 10.1-22.5 22.5-22.5z"/><path class="l" d="m187.2 101.2c12.4 0 22.5 10.1 22.5 22.5 0 12.5-10.1 22.5-22.5 22.5-12.4 0-22.5-10-22.5-22.5 0-12.4 10.1-22.5 22.5-22.5z"/><path class="j" d="m133.3 126.4c0 0-0.2-0.5-0.5-1.5-0.3-0.9-0.8-2.2-1.6-3.6-0.7-1.4-1.8-2.9-3.3-4.1-0.7-0.5-1.6-1-2.5-1.3-0.5-0.1-0.9-0.3-1.4-0.3-0.5-0.1-1-0.2-1.5-0.1-0.5 0-1.1-0.1-1.5 0-0.5 0.1-1.1 0.1-1.6 0.3-0.8 0.2-1.7 0.6-2.4 1.1-0.7 0.6-1.3 1.3-1.8 2q-0.7 1.1-1.2 2.2c-0.6 1.5-0.9 2.8-1 3.8-0.2 1-0.3 1.5-0.3 1.5 0 0-0.1-0.5-0.2-1.5-0.1-1-0.2-2.5 0.2-4.2 0.2-0.9 0.5-1.8 0.9-2.7 0.5-1 1.1-2 2.1-2.7q1.3-1.2 3.3-1.8c0.6-0.2 1.1-0.2 1.6-0.3 0.8-0.1 1.3-0.1 1.9-0.1 0.6 0 1.3 0.1 1.9 0.2 0.6 0 1.2 0.2 1.8 0.5 0.6 0.1 1.1 0.4 1.6 0.8 0.5 0.2 1 0.6 1.4 1 1.8 1.6 2.8 3.5 3.3 5.2 0.6 1.6 0.7 3.1 0.8 4.1 0 1 0 1.5 0 1.5z"/><path class="j" d="m191.1 125.5c0 0-0.1-0.6-0.4-1.5-0.3-0.9-0.8-2.2-1.6-3.6-0.8-1.4-1.8-3-3.4-4.1-0.7-0.6-1.5-1-2.5-1.3-0.4-0.2-0.9-0.3-1.4-0.3-0.5-0.1-1-0.2-1.5-0.2-0.5 0.1-1.1 0-1.4 0.1-0.5 0.1-1.2 0.1-1.6 0.3-0.8 0.2-1.7 0.5-2.4 1.1-0.8 0.5-1.4 1.2-1.9 1.9q-0.7 1.1-1.1 2.3c-0.6 1.4-0.9 2.8-1.1 3.8-0.2 0.9-0.2 1.5-0.2 1.5 0 0-0.2-0.6-0.3-1.6-0.1-0.9-0.1-2.4 0.2-4.1 0.2-0.9 0.5-1.8 1-2.8 0.5-0.9 1.1-1.9 2-2.6q1.4-1.2 3.3-1.8c0.6-0.2 1.1-0.2 1.7-0.3 0.7-0.2 1.2-0.1 1.9-0.1 0.6-0.1 1.2 0 1.8 0.1 0.6 0.1 1.2 0.3 1.8 0.5 0.6 0.2 1.1 0.5 1.7 0.8 0.5 0.3 0.9 0.7 1.4 1.1 1.7 1.5 2.7 3.5 3.3 5.1 0.5 1.7 0.7 3.1 0.7 4.1 0.1 1 0 1.6 0 1.6z"/></svg>