<svg version="1.2" xmlns="http://www.w3.org/2000/svg" viewBox="0 0 311 353" width="311" height="353"><style>.a{fill:#f19c7c}.b{fill:#c47d66}.c{fill:#fc6a5a}.d{fill:#d35450}.e{fill:#765e69}.f{fill:#8e7280}.g{fill:#a06653}.h{fill:#fff}.i{fill:#352c38}</style><path class="a" d="m302.9 353h-144.2-5.4-144.2c-10.8-103.3 89.5-107.9 106.4-117.2 17-9.3 12.4-54 12.4-54l25.4 1.7v-1.7l2.7 0.8 2.7-0.8v1.7l25.4-1.7c0 0-4.6 44.7 12.4 54 16.9 9.3 117.2 13.9 106.4 117.2z"/><path class="b" d="m127.9 181.8l25.4 1.7v-1.7l2.7 0.8 2.7-0.8v1.7l25.4-1.7c0 0-1.8 17.7 1.1 33.1q-30.4 4.8-60.9 9.4c6.3-16.5 3.6-42.5 3.6-42.5z"/><path class="c" d="m302.9 353h-144.2-5.4-144.2c-8.8-84.6 56.8-103 90.1-112 13.9 12.3 34.2 20.1 56.8 20.1 22.6 0 42.9-7.8 56.8-20.1 33.3 9 98.9 27.4 90.1 112z"/><path class="d" d="m281 275.6c15.5 16.5 25.7 40.7 21.9 77.4h-293.8c-0.6-6.2-0.8-12-0.7-17.6 90.2-22.9 180.9-43.8 272.6-59.8z"/><path class="e" d="m94.7 237.1l17.4 116h-110.7c0 0-12-98.7 93.3-116z"/><path class="f" d="m94.7 237.1l17.4 116-46.7-73.3 18.7-25.4-24-9.3c0 0 16-7.3 34.6-8z"/><path class="e" d="m309.6 353.1h-110.6l17.3-116c105.3 17.3 93.3 116 93.3 116z"/><path class="f" d="m251 245.1l-24 9.3 18.6 25.4-46.6 73.3 17.3-116c18.7 0.7 34.7 8 34.7 8z"/><path class="b" d="m97.5 145.4c-8.8 2.6-18.3-6.2-20.4-22.5-2.1-16.1 10.1-18 11.3-18.1 1.1-0.4 12.9-4 17.9 11.5 5.1 15.6 0.3 27.6-8.8 29.1z"/><path class="b" d="m206.1 116.3c5-15.5 16.9-11.9 18-11.5 1.1 0.1 13.4 2 11.3 18.1-2.2 16.3-11.6 25.1-20.4 22.5-9.1-1.5-13.9-13.5-8.9-29.1z"/><path class="a" d="m94.2 92.9c6.2-68 57.9-64.2 62.7-63.7 4.9-0.5 56.6-4.3 62.8 63.7 6.2 68.3-24.2 113-62.8 110.5-38.5 2.5-68.9-42.2-62.7-110.5z"/><path class="g" d="m165.9 100.8c0.8 3.1 1.5 6.3 2.1 9.4q0.9 4.8 1.5 9.5c0.3 1.6 0.4 3.2 0.6 4.8q0.3 2.3 0.5 4.7 0.5 4.8 0.8 9.6l0.1 0.9-0.7 0.3q-3 1.9-6.2 3.7c-2.1 1.1-4.2 2.3-6.3 3.3 1.7-1.6 3.6-3.2 5.4-4.7q2.8-2.3 5.6-4.5l-0.5 1.3q-0.8-4.7-1.4-9.5-0.3-2.4-0.5-4.8c-0.2-1.6-0.4-3.1-0.5-4.7q-0.4-4.8-0.6-9.6c-0.1-3.2-0.1-6.4 0.1-9.7z"/><path class="h" d="m183.3 159.3c-12.3 11.9-31.5 11.1-47.2 0.5"/><path class="i" d="m205.7 95.8c0 0-2.4-0.9-6-2.2-0.8-0.3-1.7-0.7-2.7-1-0.4-0.1-0.9-0.3-1.4-0.4-0.4-0.2-0.9-0.3-1.4-0.4-1-0.4-2-0.5-2.9-0.8-1 0-2-0.4-3-0.3l-1.4-0.2c-0.5 0.1-1 0.1-1.4 0.1-1-0.1-1.9 0.2-2.9 0.3-0.5 0-0.9 0.2-1.4 0.3q-0.7 0.2-1.3 0.3c-1 0.1-1.8 0.6-2.6 0.8-0.9 0.3-1.7 0.5-2.4 0.8-0.7 0.3-1.3 0.5-1.8 0.7-1.1 0.4-1.8 0.6-1.8 0.6 0 0 0.2-0.6 0.7-1.7 0.2-0.5 0.5-1.2 0.9-1.9 0.4-0.8 1-1.5 1.7-2.3 0.7-0.7 1.4-1.7 2.5-2.3 1-0.7 2-1.6 3.3-2.1q1-0.3 2-0.7c0.7-0.3 1.4-0.4 2.1-0.5 0.8-0.1 1.5-0.2 2.2-0.3q1.2 0 2.3 0.1c1.5 0 2.9 0.5 4.3 0.9 0.7 0.2 1.3 0.5 2 0.8 0.6 0.2 1.2 0.5 1.8 0.9 0.5 0.3 1.1 0.7 1.6 1q0.8 0.6 1.4 1.2c0.9 0.7 1.7 1.6 2.3 2.3 1.3 1.6 2.2 3.1 2.7 4.2 0.4 1.1 0.6 1.8 0.6 1.8z"/><path class="i" d="m147.6 94.5c0 0-2.5-0.8-6.3-1.8-0.9-0.3-1.8-0.6-2.8-0.8-1-0.3-2-0.5-3-0.7-1-0.2-2.1-0.3-3.1-0.5-1.1 0-2.1-0.2-3.1-0.1l-1.5-0.1c-0.5 0.1-1 0.2-1.5 0.2-1.1 0-2 0.4-3 0.5-0.5 0-1 0.2-1.4 0.4q-0.7 0.2-1.4 0.4c-1 0.2-1.8 0.7-2.7 1-0.8 0.3-1.7 0.6-2.3 0.9-0.7 0.4-1.4 0.7-1.9 0.9-1.1 0.5-1.8 0.7-1.8 0.7 0 0 0.2-0.7 0.7-1.8 0.2-0.5 0.5-1.2 0.9-2 0.3-0.8 0.9-1.5 1.6-2.4 0.7-0.8 1.4-1.8 2.4-2.5q0.8-0.6 1.6-1.2 0.8-0.6 1.7-1c1.3-0.6 2.7-1.3 4.2-1.5 0.7-0.2 1.4-0.3 2.2-0.5q1.1 0 2.3 0c1.5-0.1 3 0.3 4.4 0.5 0.7 0.2 1.4 0.4 2.1 0.7 0.7 0.2 1.3 0.4 1.9 0.8q1.8 0.8 3.3 1.9c1 0.7 1.8 1.5 2.6 2.2 1.5 1.5 2.5 2.9 3.1 4 0.6 1.1 0.8 1.8 0.8 1.8z"/><path class="i" d="m139.3 120.4c0 0-0.2-0.5-0.5-1.5-0.3-0.9-0.8-2.2-1.6-3.6-0.7-1.4-1.8-2.9-3.3-4.1-0.7-0.5-1.6-1-2.5-1.3-0.5-0.1-0.9-0.3-1.4-0.3-0.5-0.1-1-0.2-1.5-0.1-0.5 0-1.1-0.1-1.5 0-0.5 0.1-1.1 0.1-1.6 0.3-0.8 0.2-1.7 0.6-2.4 1.1-0.7 0.6-1.3 1.3-1.8 2q-0.7 1.1-1.2 2.2c-0.6 1.5-0.9 2.8-1 3.8-0.2 1-0.3 1.5-0.3 1.5 0 0-0.1-0.5-0.2-1.5-0.1-1-0.2-2.5 0.2-4.2 0.2-0.9 0.5-1.8 0.9-2.7 0.5-1 1.1-2 2.1-2.7q1.3-1.2 3.3-1.8c0.6-0.2 1.1-0.2 1.6-0.3 0.8-0.1 1.3-0.1 1.9-0.1 0.6 0 1.3 0.1 1.9 0.2 0.6 0 1.2 0.2 1.8 0.5 0.6 0.1 1.1 0.4 1.6 0.8 0.5 0.2 1 0.6 1.4 1 1.8 1.6 2.8 3.5 3.3 5.2 0.6 1.6 0.7 3.1 0.8 4.1 0 1 0 1.5 0 1.5z"/><path class="i" d="m197.1 119.5c0 0-0.1-0.6-0.4-1.5-0.3-0.9-0.8-2.2-1.6-3.6-0.8-1.4-1.8-3-3.4-4.1-0.7-0.6-1.5-1-2.5-1.3-0.4-0.2-0.9-0.3-1.4-0.3-0.5-0.1-1-0.2-1.5-0.2-0.5 0.1-1.1 0-1.4 0.1-0.5 0.1-1.2 0.1-1.6 0.3-0.8 0.2-1.7 0.5-2.4 1.1-0.8 0.5-1.4 1.2-1.9 1.9q-0.7 1.1-1.1 2.3c-0.6 1.4-0.9 2.8-1.1 3.8-0.2 0.9-0.2 1.5-0.2 1.5 0 0-0.2-0.6-0.3-1.6-0.1-0.9-0.1-2.4 0.2-4.1 0.2-0.9 0.5-1.8 1-2.8 0.5-0.9 1.1-1.9 2-2.6q1.4-1.2 3.3-1.8c0.6-0.2 1.1-0.2 1.7-0.3 0.7-0.2 1.2-0.1 1.9-0.1 0.6-0.1 1.2 0 1.8 0.1 0.6 0.1 1.2 0.3 1.8 0.5 0.6 0.2 1.1 0.5 1.7 0.8 0.5 0.3 0.9 0.7 1.4 1.1 1.7 1.5 2.7 3.5 3.3 5.1 0.5 1.7 0.7 3.1 0.7 4.1 0.1 1 0 1.6 0 1.6z"/><path class="i" d="m158.3 147c25.3-1.3 33.1 12.8 33.1 12.8l-33.3-0.7h-32c4.6-4.7 6.8-10.7 32.2-12.1z"/><path class="i" d="m100.7 83.1c-3.3 30 12 66 12 66l-12 8.7c-7.3-16-5.3-33.4-7.3-44.7-2-11.3-8.7-6-8.7-6 0 0-8-12-6.6-44.7 1.3-32.6 30.6-33.3 30.6-33.3 51.4-65.3 114 0 114 0-21.3-12.7-52-15.3-52-15.3 64.7 9.3 62 50.6 62 50.6-38 10-60.6-0.6-60.6-0.6l8.6 12c-37.3 6-63.3-27.4-63.3-27.4 2.7 30.7-16.7 34.7-16.7 34.7z"/><path class="i" d="m223.4 58.4c0 0 8.7 73.4-12 102.7l-8-10c0 0 22.7-40 5.3-88z"/></svg>